<svg xmlns="http://www.w3.org/2000/svg" xmlns:xlink="http://www.w3.org/1999/xlink" id="exportSvg" width="720" height="912"><defs/><g><g id="__svelte-dw-svg" clip-path="url(#rect-mask-g3rxweRMA2jBzUzWcdb0o)"><clipPath id="rect-mask-g3rxweRMA2jBzUzWcdb0o"><rect x="0" y="0" width="720" height="912"/></clipPath><g id="chart-svg"><text transform="translate(0, 1)"><tspan fill="rgb(24,24,24)" x="17" y="12.421875" style="font-family: Roboto; font-weight: 400; font-stretch: 100%; font-size: 12px;">Fastest</tspan><tspan fill="rgb(24,24,24)" dx="2.984375" style="font-family: Roboto; font-weight: 400; font-stretch: 100%; font-size: 12px;">quarter</tspan></text><text transform="translate(108.171875, 1)"><tspan fill="rgb(24,24,24)" x="17" y="12.421875" style="font-family: Roboto; font-weight: 400; font-stretch: 100%; font-size: 12px;">Median</tspan><tspan fill="rgb(24,24,24)" dx="2.984375" style="font-family: Roboto; font-weight: 400; font-stretch: 100%; font-size: 12px;">quarter</tspan></text><text transform="translate(216.46875, 1)"><tspan fill="rgb(24,24,24)" x="17" y="12.421875" style="font-family: Roboto; font-weight: 400; font-stretch: 100%; font-size: 12px;">Slowest</tspan><tspan fill="rgb(24,24,24)" dx="2.984375" style="font-family: Roboto; font-weight: 400; font-stretch: 100%; font-size: 12px;">quarter</tspan></text><g id="grid-container-svg" transform="translate(188.57813, 47.21875)"><g id="grid-svg"><g id="x-grid-lines-svg grid-x-svg datawrapper-qcyZB-1fn7900-svg"><line x1="0" x2="0" y1="750.015625" y2="0" transform="translate(92.32998, 0)" style="fill: none; stroke-width: 1; stroke-linejoin: miter; stroke-linecap: butt; stroke: rgb(231, 231, 231);"/><line x1="0" x2="0" y1="750.015625" y2="0" transform="translate(178.76655, 0)" style="fill: none; stroke-width: 1; stroke-linejoin: miter; stroke-linecap: butt; stroke: rgb(231, 231, 231);"/><line x1="0" x2="0" y1="750.015625" y2="0" transform="translate(265.20312, 0)" style="fill: none; stroke-width: 1; stroke-linejoin: miter; stroke-linecap: butt; stroke: rgb(231, 231, 231);"/><line x1="0" x2="0" y1="750.015625" y2="0" transform="translate(351.6397, 0)" style="fill: none; stroke-width: 1; stroke-linejoin: miter; stroke-linecap: butt; stroke: rgb(231, 231, 231);"/><line x1="0" x2="0" y1="750.015625" y2="0" transform="translate(438.07627, 0)" style="fill: none; stroke-width: 1; stroke-linejoin: miter; stroke-linecap: butt; stroke: rgb(231, 231, 231);"/><line x1="0" x2="0" y1="750.015625" y2="0" transform="translate(524.51285, 0)" style="fill: none; stroke-width: 1; stroke-linejoin: miter; stroke-linecap: butt; stroke: rgb(231, 231, 231);"/></g><g id="x-base-lines-svg grid-x-svg datawrapper-qcyZB-15bm8c5-svg"><line x1="0" x2="0" y1="750.015625" y2="0" transform="translate(5.8934, 0)" style="fill: none; stroke-width: 1; stroke-linejoin: miter; stroke-linecap: butt; stroke: rgb(198, 198, 198);"/></g><g id="y-grid-lines-svg grid-y-svg datawrapper-qcyZB-1fn7900-svg"><line x1="0" x2="530.40625" y1="0" y2="0" transform="translate(0, 7)" style="fill: none; stroke-width: 1; stroke-linejoin: miter; stroke-linecap: butt; stroke: rgb(231, 231, 231);"/><line x1="0" x2="530.40625" y1="0" y2="0" transform="translate(0, 26)" style="fill: none; stroke-width: 1; stroke-linejoin: miter; stroke-linecap: butt; stroke: rgb(231, 231, 231);"/><line x1="0" x2="530.40625" y1="0" y2="0" transform="translate(0, 44)" style="fill: none; stroke-width: 1; stroke-linejoin: miter; stroke-linecap: butt; stroke: rgb(231, 231, 231);"/><line x1="0" x2="530.40625" y1="0" y2="0" transform="translate(0, 62)" style="fill: none; stroke-width: 1; stroke-linejoin: miter; stroke-linecap: butt; stroke: rgb(231, 231, 231);"/><line x1="0" x2="530.40625" y1="0" y2="0" transform="translate(0, 81)" style="fill: none; stroke-width: 1; stroke-linejoin: miter; stroke-linecap: butt; stroke: rgb(231, 231, 231);"/><line x1="0" x2="530.40625" y1="0" y2="0" transform="translate(0, 99)" style="fill: none; stroke-width: 1; stroke-linejoin: miter; stroke-linecap: butt; stroke: rgb(231, 231, 231);"/><line x1="0" x2="530.40625" y1="0" y2="0" transform="translate(0, 118)" style="fill: none; stroke-width: 1; stroke-linejoin: miter; stroke-linecap: butt; stroke: rgb(231, 231, 231);"/><line x1="0" x2="530.40625" y1="0" y2="0" transform="translate(0, 136)" style="fill: none; stroke-width: 1; stroke-linejoin: miter; stroke-linecap: butt; stroke: rgb(231, 231, 231);"/><line x1="0" x2="530.40625" y1="0" y2="0" transform="translate(0, 154)" style="fill: none; stroke-width: 1; stroke-linejoin: miter; stroke-linecap: butt; stroke: rgb(231, 231, 231);"/><line x1="0" x2="530.40625" y1="0" y2="0" transform="translate(0, 173)" style="fill: none; stroke-width: 1; stroke-linejoin: miter; stroke-linecap: butt; stroke: rgb(231, 231, 231);"/><line x1="0" x2="530.40625" y1="0" y2="0" transform="translate(0, 191)" style="fill: none; stroke-width: 1; stroke-linejoin: miter; stroke-linecap: butt; stroke: rgb(231, 231, 231);"/><line x1="0" x2="530.40625" y1="0" y2="0" transform="translate(0, 209)" style="fill: none; stroke-width: 1; stroke-linejoin: miter; stroke-linecap: butt; stroke: rgb(231, 231, 231);"/><line x1="0" x2="530.40625" y1="0" y2="0" transform="translate(0, 228)" style="fill: none; stroke-width: 1; stroke-linejoin: miter; stroke-linecap: butt; stroke: rgb(231, 231, 231);"/><line x1="0" x2="530.40625" y1="0" y2="0" transform="translate(0, 246)" style="fill: none; stroke-width: 1; stroke-linejoin: miter; stroke-linecap: butt; stroke: rgb(231, 231, 231);"/><line x1="0" x2="530.40625" y1="0" y2="0" transform="translate(0, 265)" style="fill: none; stroke-width: 1; stroke-linejoin: miter; stroke-linecap: butt; stroke: rgb(231, 231, 231);"/><line x1="0" x2="530.40625" y1="0" y2="0" transform="translate(0, 283)" style="fill: none; stroke-width: 1; stroke-linejoin: miter; stroke-linecap: butt; stroke: rgb(231, 231, 231);"/><line x1="0" x2="530.40625" y1="0" y2="0" transform="translate(0, 301)" style="fill: none; stroke-width: 1; stroke-linejoin: miter; stroke-linecap: butt; stroke: rgb(231, 231, 231);"/><line x1="0" x2="530.40625" y1="0" y2="0" transform="translate(0, 320)" style="fill: none; stroke-width: 1; stroke-linejoin: miter; stroke-linecap: butt; stroke: rgb(231, 231, 231);"/><line x1="0" x2="530.40625" y1="0" y2="0" transform="translate(0, 338)" style="fill: none; stroke-width: 1; stroke-linejoin: miter; stroke-linecap: butt; stroke: rgb(231, 231, 231);"/><line x1="0" x2="530.40625" y1="0" y2="0" transform="translate(0, 357)" style="fill: none; stroke-width: 1; stroke-linejoin: miter; stroke-linecap: butt; stroke: rgb(231, 231, 231);"/><line x1="0" x2="530.40625" y1="0" y2="0" transform="translate(0, 375)" style="fill: none; stroke-width: 1; stroke-linejoin: miter; stroke-linecap: butt; stroke: rgb(231, 231, 231);"/><line x1="0" x2="530.40625" y1="0" y2="0" transform="translate(0, 393)" style="fill: none; stroke-width: 1; stroke-linejoin: miter; stroke-linecap: butt; stroke: rgb(231, 231, 231);"/><line x1="0" x2="530.40625" y1="0" y2="0" transform="translate(0, 412)" style="fill: none; stroke-width: 1; stroke-linejoin: miter; stroke-linecap: butt; stroke: rgb(231, 231, 231);"/><line x1="0" x2="530.40625" y1="0" y2="0" transform="translate(0, 430)" style="fill: none; stroke-width: 1; stroke-linejoin: miter; stroke-linecap: butt; stroke: rgb(231, 231, 231);"/><line x1="0" x2="530.40625" y1="0" y2="0" transform="translate(0, 449)" style="fill: none; stroke-width: 1; stroke-linejoin: miter; stroke-linecap: butt; stroke: rgb(231, 231, 231);"/><line x1="0" x2="530.40625" y1="0" y2="0" transform="translate(0, 467)" style="fill: none; stroke-width: 1; stroke-linejoin: miter; stroke-linecap: butt; stroke: rgb(231, 231, 231);"/><line x1="0" x2="530.40625" y1="0" y2="0" transform="translate(0, 485)" style="fill: none; stroke-width: 1; stroke-linejoin: miter; stroke-linecap: butt; stroke: rgb(231, 231, 231);"/><line x1="0" x2="530.40625" y1="0" y2="0" transform="translate(0, 504)" style="fill: none; stroke-width: 1; stroke-linejoin: miter; stroke-linecap: butt; stroke: rgb(231, 231, 231);"/><line x1="0" x2="530.40625" y1="0" y2="0" transform="translate(0, 522)" style="fill: none; stroke-width: 1; stroke-linejoin: miter; stroke-linecap: butt; stroke: rgb(231, 231, 231);"/><line x1="0" x2="530.40625" y1="0" y2="0" transform="translate(0, 541)" style="fill: none; stroke-width: 1; stroke-linejoin: miter; stroke-linecap: butt; stroke: rgb(231, 231, 231);"/><line x1="0" x2="530.40625" y1="0" y2="0" transform="translate(0, 559)" style="fill: none; stroke-width: 1; stroke-linejoin: miter; stroke-linecap: butt; stroke: rgb(231, 231, 231);"/><line x1="0" x2="530.40625" y1="0" y2="0" transform="translate(0, 577)" style="fill: none; stroke-width: 1; stroke-linejoin: miter; stroke-linecap: butt; stroke: rgb(231, 231, 231);"/><line x1="0" x2="530.40625" y1="0" y2="0" transform="translate(0, 596)" style="fill: none; stroke-width: 1; stroke-linejoin: miter; stroke-linecap: butt; stroke: rgb(231, 231, 231);"/><line x1="0" x2="530.40625" y1="0" y2="0" transform="translate(0, 614)" style="fill: none; stroke-width: 1; stroke-linejoin: miter; stroke-linecap: butt; stroke: rgb(231, 231, 231);"/><line x1="0" x2="530.40625" y1="0" y2="0" transform="translate(0, 632)" style="fill: none; stroke-width: 1; stroke-linejoin: miter; stroke-linecap: butt; stroke: rgb(231, 231, 231);"/><line x1="0" x2="530.40625" y1="0" y2="0" transform="translate(0, 651)" style="fill: none; stroke-width: 1; stroke-linejoin: miter; stroke-linecap: butt; stroke: rgb(231, 231, 231);"/><line x1="0" x2="530.40625" y1="0" y2="0" transform="translate(0, 669)" style="fill: none; stroke-width: 1; stroke-linejoin: miter; stroke-linecap: butt; stroke: rgb(231, 231, 231);"/><line x1="0" x2="530.40625" y1="0" y2="0" transform="translate(0, 688)" style="fill: none; stroke-width: 1; stroke-linejoin: miter; stroke-linecap: butt; stroke: rgb(231, 231, 231);"/><line x1="0" x2="530.40625" y1="0" y2="0" transform="translate(0, 706)" style="fill: none; stroke-width: 1; stroke-linejoin: miter; stroke-linecap: butt; stroke: rgb(231, 231, 231);"/><line x1="0" x2="530.40625" y1="0" y2="0" transform="translate(0, 724)" style="fill: none; stroke-width: 1; stroke-linejoin: miter; stroke-linecap: butt; stroke: rgb(231, 231, 231);"/><line x1="0" x2="530.40625" y1="0" y2="0" transform="translate(0, 743)" style="fill: none; stroke-width: 1; stroke-linejoin: miter; stroke-linecap: butt; stroke: rgb(231, 231, 231);"/></g></g></g><text transform="translate(183.578125, 47.21875)" style="text-anchor: end;"><tspan fill="rgb(24,24,24)" x="0" y="12" style="font-family: Roboto; font-weight: 400; font-stretch: 100%; font-size: 12px;">I-918</tspan></text><rect width="410.59375" height="6" transform="translate(293.859375, 51.40625)" fill="rgb(106,106,106)" style="fill: rgb(106, 106, 106); opacity: 0.2;"/><text transform="translate(183.578125, 65.609375)" style="text-anchor: end;"><tspan fill="rgb(24,24,24)" x="0" y="12" style="font-family: Roboto; font-weight: 400; font-stretch: 100%; font-size: 12px;">I-829</tspan></text><rect width="368.234375" height="6" transform="translate(253.234375, 69.796875)" fill="rgb(106,106,106)" style="fill: rgb(106, 106, 106); opacity: 0.2;"/><text transform="translate(183.578125, 84)" style="text-anchor: end;"><tspan fill="rgb(24,24,24)" x="0" y="12" style="font-family: Roboto; font-weight: 400; font-stretch: 100%; font-size: 12px;">I-924</tspan></text><rect width="89.90625" height="6" transform="translate(295.59375, 88.1875)" fill="rgb(106,106,106)" style="fill: rgb(106, 106, 106); opacity: 0.2;"/><text transform="translate(183.578125, 102.390625)" style="text-anchor: end;"><tspan fill="rgb(24,24,24)" x="0" y="12" style="font-family: Roboto; font-weight: 400; font-stretch: 100%; font-size: 12px;">I-526</tspan></text><rect width="376.015625" height="6" transform="translate(278.3125, 106.578125)" fill="rgb(106,106,106)" style="fill: rgb(106, 106, 106); opacity: 0.2;"/><text transform="translate(183.578125, 120.78125)" style="text-anchor: end;"><tspan fill="rgb(24,24,24)" x="0" y="12" style="font-family: Roboto; font-weight: 400; font-stretch: 100%; font-size: 12px;">I-751</tspan></text><rect width="176.34375" height="6" transform="translate(237.6875, 124.96875)" fill="rgb(106,106,106)" style="fill: rgb(106, 106, 106); opacity: 0.2;"/><text transform="translate(183.578125, 139.171875)" style="text-anchor: end;"><tspan fill="rgb(24,24,24)" x="0" y="12" style="font-family: Roboto; font-weight: 400; font-stretch: 100%; font-size: 12px;">I-914</tspan></text><rect width="114.96875" height="6" transform="translate(240.28125, 143.359375)" fill="rgb(106,106,106)" style="fill: rgb(106, 106, 106); opacity: 0.2;"/><text transform="translate(183.578125, 157.5625)" style="text-anchor: end;"><tspan fill="rgb(24,24,24)" x="0" y="12" style="font-family: Roboto; font-weight: 400; font-stretch: 100%; font-size: 12px;">I-485 (Family)</tspan></text><rect width="73.484375" height="6" transform="translate(232.5, 161.75)" fill="rgb(106,106,106)" style="fill: rgb(106, 106, 106); opacity: 0.2;"/><text transform="translate(183.578125, 175.953125)" style="text-anchor: end;"><tspan fill="rgb(24,24,24)" x="0" y="12" style="font-family: Roboto; font-weight: 400; font-stretch: 100%; font-size: 12px;">I-730</tspan></text><rect width="213.515625" height="6" transform="translate(216.9375, 180.140625)" fill="rgb(106,106,106)" style="fill: rgb(106, 106, 106); opacity: 0.2;"/><text transform="translate(183.578125, 194.34375)" style="text-anchor: end;"><tspan fill="rgb(24,24,24)" x="0" y="12" style="font-family: Roboto; font-weight: 400; font-stretch: 100%; font-size: 12px;">I-130</tspan></text><rect width="61.375" height="6" transform="translate(235.09375, 198.53125)" fill="rgb(106,106,106)" style="fill: rgb(106, 106, 106); opacity: 0.2;"/><text transform="translate(183.578125, 212.734375)" style="text-anchor: end;"><tspan fill="rgb(24,24,24)" x="0" y="12" style="font-family: Roboto; font-weight: 400; font-stretch: 100%; font-size: 12px;">I-485 (Employment)</tspan></text><rect width="64.84375" height="6" transform="translate(224.71875, 216.921875)" fill="rgb(106,106,106)" style="fill: rgb(106, 106, 106); opacity: 0.2;"/><text transform="translate(183.578125, 231.125)" style="text-anchor: end;"><tspan fill="rgb(24,24,24)" x="0" y="12" style="font-family: Roboto; font-weight: 400; font-stretch: 100%; font-size: 12px;">Waivers</tspan></text><rect width="135.71875" height="6" transform="translate(235.953125, 235.3125)" fill="rgb(106,106,106)" style="fill: rgb(106, 106, 106); opacity: 0.2;"/><text transform="translate(183.578125, 249.515625)" style="text-anchor: end;"><tspan fill="rgb(24,24,24)" x="0" y="12" style="font-family: Roboto; font-weight: 400; font-stretch: 100%; font-size: 12px;">I-485 (Other)</tspan></text><rect width="235.984375" height="6" transform="translate(241.140625, 253.703125)" fill="rgb(106,106,106)" style="fill: rgb(106, 106, 106); opacity: 0.2;"/><text transform="translate(183.578125, 267.90625)" style="text-anchor: end;"><tspan fill="rgb(24,24,24)" x="0" y="12" style="font-family: Roboto; font-weight: 400; font-stretch: 100%; font-size: 12px;">I-485 (Cuban)</tspan></text><rect width="69.171875" height="6" transform="translate(222.984375, 272.09375)" fill="rgb(106,106,106)" style="fill: rgb(106, 106, 106); opacity: 0.2;"/><text transform="translate(183.578125, 286.296875)" style="text-anchor: end;"><tspan fill="rgb(24,24,24)" x="0" y="12" style="font-family: Roboto; font-weight: 400; font-stretch: 100%; font-size: 12px;">I-817</tspan></text><rect width="83.859375" height="6" transform="translate(214.34375, 290.484375)" fill="rgb(106,106,106)" style="fill: rgb(106, 106, 106); opacity: 0.2;"/><text transform="translate(183.578125, 304.6875)" style="text-anchor: end;"><tspan fill="rgb(24,24,24)" x="0" y="12" style="font-family: Roboto; font-weight: 400; font-stretch: 100%; font-size: 12px;">N-400</tspan></text><rect width="57.0625" height="6" transform="translate(236.8125, 308.875)" fill="rgb(106,106,106)" style="fill: rgb(106, 106, 106); opacity: 0.2;"/><text transform="translate(183.578125, 323.078125)" style="text-anchor: end;"><tspan fill="rgb(24,24,24)" x="0" y="12" style="font-family: Roboto; font-weight: 400; font-stretch: 100%; font-size: 12px;">l-601A</tspan></text><rect width="345.765625" height="6" transform="translate(220.390625, 327.265625)" fill="rgb(106,106,106)" style="fill: rgb(106, 106, 106); opacity: 0.2;"/><text transform="translate(183.578125, 341.46875)" style="text-anchor: end;"><tspan fill="rgb(24,24,24)" x="0" y="12" style="font-family: Roboto; font-weight: 400; font-stretch: 100%; font-size: 12px;">I-485 (Refugee)</tspan></text><rect width="153.875" height="6" transform="translate(227.3125, 345.65625)" fill="rgb(106,106,106)" style="fill: rgb(106, 106, 106); opacity: 0.2;"/><text transform="translate(183.578125, 359.859375)" style="text-anchor: end;"><tspan fill="rgb(24,24,24)" x="0" y="12" style="font-family: Roboto; font-weight: 400; font-stretch: 100%; font-size: 12px;">I-90</tspan></text><rect width="69.171875" height="6" transform="translate(203.96875, 364.046875)" fill="rgb(106,106,106)" style="fill: rgb(106, 106, 106); opacity: 0.2;"/><text transform="translate(183.578125, 378.25)" style="text-anchor: end;"><tspan fill="rgb(24,24,24)" x="0" y="12" style="font-family: Roboto; font-weight: 400; font-stretch: 100%; font-size: 12px;">I-360</tspan></text><rect width="116.703125" height="6" transform="translate(222.984375, 382.4375)" fill="rgb(106,106,106)" style="fill: rgb(106, 106, 106); opacity: 0.2;"/><text transform="translate(183.578125, 396.640625)" style="text-anchor: end;"><tspan fill="rgb(24,24,24)" x="0" y="12" style="font-family: Roboto; font-weight: 400; font-stretch: 100%; font-size: 12px;">I-485 (Asylum)</tspan></text><rect width="170.296875" height="6" transform="translate(222.125, 400.828125)" fill="rgb(106,106,106)" style="fill: rgb(106, 106, 106); opacity: 0.2;"/><text transform="translate(183.578125, 415.03125)" style="text-anchor: end;"><tspan fill="rgb(24,24,24)" x="0" y="12" style="font-family: Roboto; font-weight: 400; font-stretch: 100%; font-size: 12px;">N-600</tspan></text><rect width="39.78125" height="6" transform="translate(234.21875, 419.21875)" fill="rgb(106,106,106)" style="fill: rgb(106, 106, 106); opacity: 0.2;"/><text transform="translate(183.578125, 433.421875)" style="text-anchor: end;"><tspan fill="rgb(24,24,24)" x="0" y="12" style="font-family: Roboto; font-weight: 400; font-stretch: 100%; font-size: 12px;">l-129F</tspan></text><rect width="97.6875" height="6" transform="translate(216.9375, 437.609375)" fill="rgb(106,106,106)" style="fill: rgb(106, 106, 106); opacity: 0.2;"/><text transform="translate(183.578125, 451.8125)" style="text-anchor: end;"><tspan fill="rgb(24,24,24)" x="0" y="12" style="font-family: Roboto; font-weight: 400; font-stretch: 100%; font-size: 12px;">I-140</tspan></text><rect width="50.140625" height="6" transform="translate(224.71875, 456)" fill="rgb(106,106,106)" style="fill: rgb(106, 106, 106); opacity: 0.2;"/><text transform="translate(183.578125, 470.203125)" style="text-anchor: end;"><tspan fill="rgb(24,24,24)" x="0" y="12" style="font-family: Roboto; font-weight: 400; font-stretch: 100%; font-size: 12px;">I-821D (DACA-initial)</tspan></text><rect width="61.390625" height="6" transform="translate(222.984375, 474.390625)" fill="rgb(106,106,106)" style="fill: rgb(106, 106, 106); opacity: 0.2;"/><text transform="translate(183.578125, 488.59375)" style="text-anchor: end;"><tspan fill="rgb(24,24,24)" x="0" y="12" style="font-family: Roboto; font-weight: 400; font-stretch: 100%; font-size: 12px;">I-824</tspan></text><rect width="56.203125" height="6" transform="translate(210.890625, 492.78125)" fill="rgb(106,106,106)" style="fill: rgb(106, 106, 106); opacity: 0.2;"/><text transform="translate(183.578125, 506.984375)" style="text-anchor: end;"><tspan fill="rgb(24,24,24)" x="0" y="12" style="font-family: Roboto; font-weight: 400; font-stretch: 100%; font-size: 12px;">N-565</tspan></text><rect width="72.625" height="6" transform="translate(215.203125, 511.171875)" fill="rgb(106,106,106)" style="fill: rgb(106, 106, 106); opacity: 0.2;"/><text transform="translate(183.578125, 525.375)" style="text-anchor: end;"><tspan fill="rgb(24,24,24)" x="0" y="12" style="font-family: Roboto; font-weight: 400; font-stretch: 100%; font-size: 12px;">I-131</tspan></text><rect width="114.96875" height="6" transform="translate(216.9375, 529.5625)" fill="rgb(106,106,106)" style="fill: rgb(106, 106, 106); opacity: 0.2;"/><text transform="translate(183.578125, 543.765625)" style="text-anchor: end;"><tspan fill="rgb(24,24,24)" x="0" y="12" style="font-family: Roboto; font-weight: 400; font-stretch: 100%; font-size: 12px;">I-131 (Advance Parole)</tspan></text><rect width="53.609375" height="6" transform="translate(207.421875, 547.953125)" fill="rgb(106,106,106)" style="fill: rgb(106, 106, 106); opacity: 0.2;"/><text transform="translate(183.578125, 562.15625)" style="text-anchor: end;"><tspan fill="rgb(24,24,24)" x="0" y="12" style="font-family: Roboto; font-weight: 400; font-stretch: 100%; font-size: 12px;">I-765 (I-485)</tspan></text><rect width="44.953125" height="6" transform="translate(210.890625, 566.34375)" fill="rgb(106,106,106)" style="fill: rgb(106, 106, 106); opacity: 0.2;"/><text transform="translate(183.578125, 580.546875)" style="text-anchor: end;"><tspan fill="rgb(24,24,24)" x="0" y="12" style="font-family: Roboto; font-weight: 400; font-stretch: 100%; font-size: 12px;">I-102</tspan></text><rect width="49.296875" height="6" transform="translate(212.609375, 584.734375)" fill="rgb(106,106,106)" style="fill: rgb(106, 106, 106); opacity: 0.2;"/><text transform="translate(183.578125, 598.9375)" style="text-anchor: end;"><tspan fill="rgb(24,24,24)" x="0" y="12" style="font-family: Roboto; font-weight: 400; font-stretch: 100%; font-size: 12px;">I-539</tspan></text><rect width="63.96875" height="6" transform="translate(213.484375, 603.125)" fill="rgb(106,106,106)" style="fill: rgb(106, 106, 106); opacity: 0.2;"/><text transform="translate(183.578125, 617.328125)" style="text-anchor: end;"><tspan fill="rgb(24,24,24)" x="0" y="12" style="font-family: Roboto; font-weight: 400; font-stretch: 100%; font-size: 12px;">I-600</tspan></text><rect width="44.09375" height="6" transform="translate(204.84375, 621.515625)" fill="rgb(106,106,106)" style="fill: rgb(106, 106, 106); opacity: 0.2;"/><text transform="translate(183.578125, 635.71875)" style="text-anchor: end;"><tspan fill="rgb(24,24,24)" x="0" y="12" style="font-family: Roboto; font-weight: 400; font-stretch: 100%; font-size: 12px;">I-131 (Parole in place)</tspan></text><rect width="29.40625" height="6" transform="translate(211.75, 639.90625)" fill="rgb(106,106,106)" style="fill: rgb(106, 106, 106); opacity: 0.2;"/><text transform="translate(183.578125, 654.109375)" style="text-anchor: end;"><tspan fill="rgb(24,24,24)" x="0" y="12" style="font-family: Roboto; font-weight: 400; font-stretch: 100%; font-size: 12px;">I-821</tspan></text><rect width="89.046875" height="6" transform="translate(207.421875, 658.296875)" fill="rgb(106,106,106)" style="fill: rgb(106, 106, 106); opacity: 0.2;"/><text transform="translate(183.578125, 672.5)" style="text-anchor: end;"><tspan fill="rgb(24,24,24)" x="0" y="12" style="font-family: Roboto; font-weight: 400; font-stretch: 100%; font-size: 12px;">I-765 (Employment authorization)</tspan></text><rect width="29.40625" height="6" transform="translate(205.703125, 676.6875)" fill="rgb(106,106,106)" style="fill: rgb(106, 106, 106); opacity: 0.2;"/><text transform="translate(183.578125, 690.890625)" style="text-anchor: end;"><tspan fill="rgb(24,24,24)" x="0" y="12" style="font-family: Roboto; font-weight: 400; font-stretch: 100%; font-size: 12px;">I-600</tspan></text><rect width="17.3125" height="6" transform="translate(207.421875, 695.078125)" fill="rgb(106,106,106)" style="fill: rgb(106, 106, 106); opacity: 0.2;"/><text transform="translate(183.578125, 709.28125)" style="text-anchor: end;"><tspan fill="rgb(24,24,24)" x="0" y="12" style="font-family: Roboto; font-weight: 400; font-stretch: 100%; font-size: 12px;">I-765 (Other)</tspan></text><rect width="47.546875" height="6" transform="translate(199.65625, 713.46875)" fill="rgb(106,106,106)" style="fill: rgb(106, 106, 106); opacity: 0.2;"/><text transform="translate(183.578125, 727.671875)" style="text-anchor: end;"><tspan fill="rgb(24,24,24)" x="0" y="12" style="font-family: Roboto; font-weight: 400; font-stretch: 100%; font-size: 12px;">I-765 (DACA)</tspan></text><rect width="29.40625" height="6" transform="translate(198.78125, 731.859375)" fill="rgb(106,106,106)" style="fill: rgb(106, 106, 106); opacity: 0.2;"/><text transform="translate(183.578125, 746.0625)" style="text-anchor: end;"><tspan fill="rgb(24,24,24)" x="0" y="12" style="font-family: Roboto; font-weight: 400; font-stretch: 100%; font-size: 12px;">I-765 (Asylum)</tspan></text><rect width="75.21875" height="6" transform="translate(198.78125, 750.25)" fill="rgb(106,106,106)" style="fill: rgb(106, 106, 106); opacity: 0.2;"/><text transform="translate(183.578125, 764.453125)" style="text-anchor: end;"><tspan fill="rgb(24,24,24)" x="0" y="12" style="font-family: Roboto; font-weight: 400; font-stretch: 100%; font-size: 12px;">I-821D (DACA-renewal)</tspan></text><rect width="18.171875" height="6" transform="translate(198.78125, 768.640625)" fill="rgb(106,106,106)" style="fill: rgb(106, 106, 106); opacity: 0.2;"/><text transform="translate(183.578125, 782.84375)" style="text-anchor: end;"><tspan fill="rgb(24,24,24)" x="0" y="12" style="font-family: Roboto; font-weight: 400; font-stretch: 100%; font-size: 12px;">I-800</tspan></text><rect width="5.203125" height="6" transform="translate(198.78125, 787.03125)" fill="rgb(106,106,106)" style="fill: rgb(106, 106, 106); opacity: 0.2;"/><g id="grid-container-svg" transform="translate(188.57813, 47.21875)"><g id="grid-svg"><g id="x-tick-labels-svg grid-x-svg number-axis-svg datawrapper-qcyZB-16k86v8-svg" transform="translate(0, -8)"><text transform="translate(5.8934, 0) translate(-3.5, 0) translate(3.5, 0)" style="text-anchor: middle;"><tspan fill="rgb(162, 162, 162)" style="font-family: Roboto; font-weight: 400; font-stretch: 100%; font-size: 12px;" x="0" dominant-baseline="auto" y="0">0</tspan></text><text transform="translate(92.32998, 0) translate(-6.86914, 0) translate(6.869140625, 0)" style="text-anchor: middle;"><tspan fill="rgb(162, 162, 162)" style="font-family: Roboto; font-weight: 400; font-stretch: 100%; font-size: 12px;" x="0" dominant-baseline="auto" y="0">10</tspan></text><text transform="translate(178.76655, 0) translate(-6.86914, 0) translate(6.869140625, 0)" style="text-anchor: middle;"><tspan fill="rgb(162, 162, 162)" style="font-family: Roboto; font-weight: 400; font-stretch: 100%; font-size: 12px;" x="0" dominant-baseline="auto" y="0">20</tspan></text><text transform="translate(265.20312, 0) translate(-6.86914, 0) translate(6.869140625, 0)" style="text-anchor: middle;"><tspan fill="rgb(162, 162, 162)" style="font-family: Roboto; font-weight: 400; font-stretch: 100%; font-size: 12px;" x="0" dominant-baseline="auto" y="0">30</tspan></text><text transform="translate(351.6397, 0) translate(-6.86914, 0) translate(6.869140625, 0)" style="text-anchor: middle;"><tspan fill="rgb(162, 162, 162)" style="font-family: Roboto; font-weight: 400; font-stretch: 100%; font-size: 12px;" x="0" dominant-baseline="auto" y="0">40</tspan></text><text transform="translate(438.07627, 0) translate(-6.86914, 0) translate(6.869140625, 0)" style="text-anchor: middle;"><tspan fill="rgb(162, 162, 162)" style="font-family: Roboto; font-weight: 400; font-stretch: 100%; font-size: 12px;" x="0" dominant-baseline="auto" y="0">50</tspan></text><text transform="translate(524.51285, 0) translate(-13.73828, 0) translate(13.73828125, 0)" style="text-anchor: end;"><tspan fill="rgb(162, 162, 162)" style="font-family: Roboto; font-weight: 400; font-stretch: 100%; font-size: 12px;" x="0" dominant-baseline="auto" y="0">60</tspan></text></g><g id="y-base-lines-svg grid-y-svg datawrapper-qcyZB-1io9s9d-svg"/></g></g><circle r="5" cx="293.859375" cy="54.40625" fill="rgb(0,144,118)"/><circle r="5" cx="615.40625" cy="54.40625" fill="rgb(250,140,0)"/><circle r="5" cx="704.4375" cy="54.40625" fill="rgb(199,30,29)"/><circle r="5" cx="253.234375" cy="72.796875" fill="rgb(0,144,118)"/><circle r="5" cx="395.859375" cy="72.796875" fill="rgb(250,140,0)"/><circle r="5" cx="621.453125" cy="72.796875" fill="rgb(199,30,29)"/><circle r="5" cx="295.59375" cy="91.1875" fill="rgb(0,144,118)"/><circle r="5" cx="356.96875" cy="91.1875" fill="rgb(250,140,0)"/><circle r="5" cx="385.484375" cy="91.1875" fill="rgb(199,30,29)"/><circle r="5" cx="278.3125" cy="109.578125" fill="rgb(0,144,118)"/><circle r="5" cx="353.9375" cy="109.578125" fill="rgb(250,140,0)"/><circle r="5" cx="654.3125" cy="109.578125" fill="rgb(199,30,29)"/><circle r="5" cx="237.6875" cy="127.96875" fill="rgb(0,144,118)"/><circle r="5" cx="312.875" cy="127.96875" fill="rgb(250,140,0)"/><circle r="5" cx="414.015625" cy="127.96875" fill="rgb(199,30,29)"/><circle r="5" cx="240.28125" cy="146.359375" fill="rgb(0,144,118)"/><circle r="5" cx="299.921875" cy="146.359375" fill="rgb(250,140,0)"/><circle r="5" cx="355.234375" cy="146.359375" fill="rgb(199,30,29)"/><circle r="5" cx="232.5" cy="164.75" fill="rgb(0,144,118)"/><circle r="5" cx="276.140625" cy="164.75" fill="rgb(250,140,0)"/><circle r="5" cx="305.96875" cy="164.75" fill="rgb(199,30,29)"/><circle r="5" cx="216.9375" cy="183.140625" fill="rgb(0,144,118)"/><circle r="5" cx="267.9375" cy="183.140625" fill="rgb(250,140,0)"/><circle r="5" cx="430.4375" cy="183.140625" fill="rgb(199,30,29)"/><circle r="5" cx="235.09375" cy="201.53125" fill="rgb(0,144,118)"/><circle r="5" cx="263.1875" cy="201.53125" fill="rgb(250,140,0)"/><circle r="5" cx="296.453125" cy="201.53125" fill="rgb(199,30,29)"/><circle r="5" cx="224.71875" cy="219.921875" fill="rgb(0,144,118)"/><circle r="5" cx="261.890625" cy="219.921875" fill="rgb(250,140,0)"/><circle r="5" cx="289.546875" cy="219.921875" fill="rgb(199,30,29)"/><circle r="5" cx="235.953125" cy="238.3125" fill="rgb(0,144,118)"/><circle r="5" cx="261.890625" cy="238.3125" fill="rgb(250,140,0)"/><circle r="5" cx="371.65625" cy="238.3125" fill="rgb(199,30,29)"/><circle r="5" cx="241.140625" cy="256.703125" fill="rgb(0,144,118)"/><circle r="5" cx="259.71875" cy="256.703125" fill="rgb(250,140,0)"/><circle r="5" cx="477.109375" cy="256.703125" fill="rgb(199,30,29)"/><circle r="5" cx="222.984375" cy="275.09375" fill="rgb(0,144,118)"/><circle r="5" cx="255.828125" cy="275.09375" fill="rgb(250,140,0)"/><circle r="5" cx="292.140625" cy="275.09375" fill="rgb(199,30,29)"/><circle r="5" cx="214.34375" cy="293.484375" fill="rgb(0,144,118)"/><circle r="5" cx="255.40625" cy="293.484375" fill="rgb(250,140,0)"/><circle r="5" cx="298.1875" cy="293.484375" fill="rgb(199,30,29)"/><circle r="5" cx="236.8125" cy="311.875" fill="rgb(0,144,118)"/><circle r="5" cx="254.96875" cy="311.875" fill="rgb(250,140,0)"/><circle r="5" cx="293.859375" cy="311.875" fill="rgb(199,30,29)"/><circle r="5" cx="220.390625" cy="330.265625" fill="rgb(0,144,118)"/><circle r="5" cx="253.234375" cy="330.265625" fill="rgb(250,140,0)"/><circle r="5" cx="566.140625" cy="330.265625" fill="rgb(199,30,29)"/><circle r="5" cx="227.3125" cy="348.65625" fill="rgb(0,144,118)"/><circle r="5" cx="252.8125" cy="348.65625" fill="rgb(250,140,0)"/><circle r="5" cx="381.171875" cy="348.65625" fill="rgb(199,30,29)"/><circle r="5" cx="203.96875" cy="367.046875" fill="rgb(0,144,118)"/><circle r="5" cx="251.515625" cy="367.046875" fill="rgb(250,140,0)"/><circle r="5" cx="273.125" cy="367.046875" fill="rgb(199,30,29)"/><circle r="5" cx="222.984375" cy="385.4375" fill="rgb(0,144,118)"/><circle r="5" cx="251.078125" cy="385.4375" fill="rgb(250,140,0)"/><circle r="5" cx="339.671875" cy="385.4375" fill="rgb(199,30,29)"/><circle r="5" cx="222.125" cy="403.828125" fill="rgb(0,144,118)"/><circle r="5" cx="250.21875" cy="403.828125" fill="rgb(250,140,0)"/><circle r="5" cx="392.40625" cy="403.828125" fill="rgb(199,30,29)"/><circle r="5" cx="234.21875" cy="422.21875" fill="rgb(0,144,118)"/><circle r="5" cx="248.921875" cy="422.21875" fill="rgb(250,140,0)"/><circle r="5" cx="273.984375" cy="422.21875" fill="rgb(199,30,29)"/><circle r="5" cx="216.9375" cy="440.609375" fill="rgb(0,144,118)"/><circle r="5" cx="242.4375" cy="440.609375" fill="rgb(250,140,0)"/><circle r="5" cx="314.609375" cy="440.609375" fill="rgb(199,30,29)"/><circle r="5" cx="224.71875" cy="459" fill="rgb(0,144,118)"/><circle r="5" cx="242" cy="459" fill="rgb(250,140,0)"/><circle r="5" cx="274.84375" cy="459" fill="rgb(199,30,29)"/><circle r="5" cx="222.984375" cy="477.390625" fill="rgb(0,144,118)"/><circle r="5" cx="242" cy="477.390625" fill="rgb(250,140,0)"/><circle r="5" cx="284.359375" cy="477.390625" fill="rgb(199,30,29)"/><circle r="5" cx="210.890625" cy="495.78125" fill="rgb(0,144,118)"/><circle r="5" cx="238.984375" cy="495.78125" fill="rgb(250,140,0)"/><circle r="5" cx="267.078125" cy="495.78125" fill="rgb(199,30,29)"/><circle r="5" cx="215.203125" cy="514.171875" fill="rgb(0,144,118)"/><circle r="5" cx="238.984375" cy="514.171875" fill="rgb(250,140,0)"/><circle r="5" cx="287.8125" cy="514.171875" fill="rgb(199,30,29)"/><circle r="5" cx="216.9375" cy="532.5625" fill="rgb(0,144,118)"/><circle r="5" cx="230.328125" cy="532.5625" fill="rgb(250,140,0)"/><circle r="5" cx="331.890625" cy="532.5625" fill="rgb(199,30,29)"/><circle r="5" cx="207.421875" cy="550.953125" fill="rgb(0,144,118)"/><circle r="5" cx="229.46875" cy="550.953125" fill="rgb(250,140,0)"/><circle r="5" cx="261.015625" cy="550.953125" fill="rgb(199,30,29)"/><circle r="5" cx="210.890625" cy="569.34375" fill="rgb(0,144,118)"/><circle r="5" cx="228.609375" cy="569.34375" fill="rgb(250,140,0)"/><circle r="5" cx="255.828125" cy="569.34375" fill="rgb(199,30,29)"/><circle r="5" cx="212.609375" cy="587.734375" fill="rgb(0,144,118)"/><circle r="5" cx="228.171875" cy="587.734375" fill="rgb(250,140,0)"/><circle r="5" cx="261.890625" cy="587.734375" fill="rgb(199,30,29)"/><circle r="5" cx="213.484375" cy="606.125" fill="rgb(0,144,118)"/><circle r="5" cx="223.859375" cy="606.125" fill="rgb(250,140,0)"/><circle r="5" cx="277.4375" cy="606.125" fill="rgb(199,30,29)"/><circle r="5" cx="204.84375" cy="624.515625" fill="rgb(0,144,118)"/><circle r="5" cx="223.421875" cy="624.515625" fill="rgb(250,140,0)"/><circle r="5" cx="248.921875" cy="624.515625" fill="rgb(199,30,29)"/><circle r="5" cx="211.75" cy="642.90625" fill="rgb(0,144,118)"/><circle r="5" cx="222.984375" cy="642.90625" fill="rgb(250,140,0)"/><circle r="5" cx="241.140625" cy="642.90625" fill="rgb(199,30,29)"/><circle r="5" cx="207.421875" cy="661.296875" fill="rgb(0,144,118)"/><circle r="5" cx="222.5625" cy="661.296875" fill="rgb(250,140,0)"/><circle r="5" cx="296.453125" cy="661.296875" fill="rgb(199,30,29)"/><circle r="5" cx="205.703125" cy="679.6875" fill="rgb(0,144,118)"/><circle r="5" cx="217.375" cy="679.6875" fill="rgb(250,140,0)"/><circle r="5" cx="235.09375" cy="679.6875" fill="rgb(199,30,29)"/><circle r="5" cx="207.421875" cy="698.078125" fill="rgb(0,144,118)"/><circle r="5" cx="212.1875" cy="698.078125" fill="rgb(250,140,0)"/><circle r="5" cx="224.71875" cy="698.078125" fill="rgb(199,30,29)"/><circle r="5" cx="199.65625" cy="716.46875" fill="rgb(0,144,118)"/><circle r="5" cx="212.1875" cy="716.46875" fill="rgb(250,140,0)"/><circle r="5" cx="247.1875" cy="716.46875" fill="rgb(199,30,29)"/><circle r="5" cx="198.78125" cy="734.859375" fill="rgb(0,144,118)"/><circle r="5" cx="210.015625" cy="734.859375" fill="rgb(250,140,0)"/><circle r="5" cx="228.171875" cy="734.859375" fill="rgb(199,30,29)"/><circle r="5" cx="198.78125" cy="753.25" fill="rgb(0,144,118)"/><circle r="5" cx="209.59375" cy="753.25" fill="rgb(250,140,0)"/><circle r="5" cx="273.984375" cy="753.25" fill="rgb(199,30,29)"/><circle r="5" cx="198.78125" cy="771.640625" fill="rgb(0,144,118)"/><circle r="5" cx="208.296875" cy="771.640625" fill="rgb(250,140,0)"/><circle r="5" cx="216.9375" cy="771.640625" fill="rgb(199,30,29)"/><circle r="5" cx="198.78125" cy="790.03125" fill="rgb(0,144,118)"/><circle r="5" cx="199.65625" cy="790.03125" fill="rgb(250,140,0)"/><circle r="5" cx="203.96875" cy="790.03125" fill="rgb(199,30,29)"/><circle r="7" cx="7" cy="8.828125" fill="rgb(0,144,118)"/><circle r="7" cx="115.171875" cy="8.828125" fill="rgb(250,140,0)"/><circle r="7" cx="223.46875" cy="8.828125" fill="rgb(199,30,29)"/></g><g id="container-svg container-footer-svg datawrapper-qcyZB-1o125dc-svg"><text transform="translate(0, 899)"><tspan fill="rgb(136,136,136)" x="0" y="11" style="font-family: Roboto; font-weight: 400; font-stretch: 100%; font-size: 11px;">Created with</tspan><tspan fill="rgb(136,136,136)" dx="2.734375" style="font-family: Roboto; font-weight: 400; font-stretch: 100%; font-size: 11px;">Datawrapper</tspan></text></g></g></g></svg>