<svg xmlns="http://www.w3.org/2000/svg" xmlns:xlink="http://www.w3.org/1999/xlink" id="exportSvg" width="720" height="885"><defs/><rect width="720" height="885" transform="translate(0, 0)" fill="rgb(255, 255, 255)" style="fill: rgb(255, 255, 255);"/><g><g id="__svelte-dw-svg" clip-path="url(#rect-mask-wvySPg_GAdjF3R8diZ7p7)"><clipPath id="rect-mask-wvySPg_GAdjF3R8diZ7p7"><rect x="0" y="0" width="720" height="911.234375"/></clipPath><g id="container-svg container-header-svg datawrapper-bai82-5c5xuk-svg"><text transform="translate(0, 0)"><tspan fill="rgb(0,0,0)" x="0" y="22" style="font-family: Roboto; font-weight: 700; font-stretch: 100%; font-size: 22px;">On immigration, Trump is slower than Obama but Biden is even slower</tspan></text><text transform="translate(0, 35)"><tspan fill="rgb(24,24,24)" x="0" y="14" style="font-family: Roboto; font-weight: 400; font-stretch: 100%; font-size: 14px;">This is even after COVID cases have plateaued under Biden's term</tspan></text></g><g id="chart-svg"><text transform="translate(0, 63)"><tspan fill="rgb(24,24,24)" x="17" y="12.421875" style="font-family: Roboto; font-weight: 400; font-stretch: 100%; font-size: 12px;">Obama</tspan><tspan fill="rgb(24,24,24)" dx="2.984375" style="font-family: Roboto; font-weight: 400; font-stretch: 100%; font-size: 12px;">median</tspan></text><text transform="translate(108.25, 63)"><tspan fill="rgb(24,24,24)" x="17" y="12.421875" style="font-family: Roboto; font-weight: 400; font-stretch: 100%; font-size: 12px;">Trump</tspan><tspan fill="rgb(24,24,24)" dx="2.984375" style="font-family: Roboto; font-weight: 400; font-stretch: 100%; font-size: 12px;">median</tspan></text><text transform="translate(212.59375, 63)"><tspan fill="rgb(24,24,24)" x="17" y="12.421875" style="font-family: Roboto; font-weight: 400; font-stretch: 100%; font-size: 12px;">Biden</tspan><tspan fill="rgb(24,24,24)" dx="2.984375" style="font-family: Roboto; font-weight: 400; font-stretch: 100%; font-size: 12px;">median</tspan></text><g id="grid-container-svg" transform="translate(188.57813, 109.21875)"><g id="grid-svg"><g id="x-grid-lines-svg grid-x-svg datawrapper-bai82-1fn7900-svg"><line x1="0" x2="0" y1="750.015625" y2="0" transform="translate(92.32998, 0)" style="fill: none; stroke-width: 1; stroke-linejoin: miter; stroke-linecap: butt; stroke: rgb(231, 231, 231);"/><line x1="0" x2="0" y1="750.015625" y2="0" transform="translate(178.76655, 0)" style="fill: none; stroke-width: 1; stroke-linejoin: miter; stroke-linecap: butt; stroke: rgb(231, 231, 231);"/><line x1="0" x2="0" y1="750.015625" y2="0" transform="translate(265.20312, 0)" style="fill: none; stroke-width: 1; stroke-linejoin: miter; stroke-linecap: butt; stroke: rgb(231, 231, 231);"/><line x1="0" x2="0" y1="750.015625" y2="0" transform="translate(351.6397, 0)" style="fill: none; stroke-width: 1; stroke-linejoin: miter; stroke-linecap: butt; stroke: rgb(231, 231, 231);"/><line x1="0" x2="0" y1="750.015625" y2="0" transform="translate(438.07627, 0)" style="fill: none; stroke-width: 1; stroke-linejoin: miter; stroke-linecap: butt; stroke: rgb(231, 231, 231);"/><line x1="0" x2="0" y1="750.015625" y2="0" transform="translate(524.51285, 0)" style="fill: none; stroke-width: 1; stroke-linejoin: miter; stroke-linecap: butt; stroke: rgb(231, 231, 231);"/></g><g id="x-base-lines-svg grid-x-svg datawrapper-bai82-15bm8c5-svg"><line x1="0" x2="0" y1="750.015625" y2="0" transform="translate(5.8934, 0)" style="fill: none; stroke-width: 1; stroke-linejoin: miter; stroke-linecap: butt; stroke: rgb(198, 198, 198);"/></g><g id="y-grid-lines-svg grid-y-svg datawrapper-bai82-1fn7900-svg"><line x1="0" x2="530.40625" y1="0" y2="0" transform="translate(0, 7)" style="fill: none; stroke-width: 1; stroke-linejoin: miter; stroke-linecap: butt; stroke: rgb(231, 231, 231);"/><line x1="0" x2="530.40625" y1="0" y2="0" transform="translate(0, 26)" style="fill: none; stroke-width: 1; stroke-linejoin: miter; stroke-linecap: butt; stroke: rgb(231, 231, 231);"/><line x1="0" x2="530.40625" y1="0" y2="0" transform="translate(0, 44)" style="fill: none; stroke-width: 1; stroke-linejoin: miter; stroke-linecap: butt; stroke: rgb(231, 231, 231);"/><line x1="0" x2="530.40625" y1="0" y2="0" transform="translate(0, 62)" style="fill: none; stroke-width: 1; stroke-linejoin: miter; stroke-linecap: butt; stroke: rgb(231, 231, 231);"/><line x1="0" x2="530.40625" y1="0" y2="0" transform="translate(0, 81)" style="fill: none; stroke-width: 1; stroke-linejoin: miter; stroke-linecap: butt; stroke: rgb(231, 231, 231);"/><line x1="0" x2="530.40625" y1="0" y2="0" transform="translate(0, 99)" style="fill: none; stroke-width: 1; stroke-linejoin: miter; stroke-linecap: butt; stroke: rgb(231, 231, 231);"/><line x1="0" x2="530.40625" y1="0" y2="0" transform="translate(0, 118)" style="fill: none; stroke-width: 1; stroke-linejoin: miter; stroke-linecap: butt; stroke: rgb(231, 231, 231);"/><line x1="0" x2="530.40625" y1="0" y2="0" transform="translate(0, 136)" style="fill: none; stroke-width: 1; stroke-linejoin: miter; stroke-linecap: butt; stroke: rgb(231, 231, 231);"/><line x1="0" x2="530.40625" y1="0" y2="0" transform="translate(0, 154)" style="fill: none; stroke-width: 1; stroke-linejoin: miter; stroke-linecap: butt; stroke: rgb(231, 231, 231);"/><line x1="0" x2="530.40625" y1="0" y2="0" transform="translate(0, 173)" style="fill: none; stroke-width: 1; stroke-linejoin: miter; stroke-linecap: butt; stroke: rgb(231, 231, 231);"/><line x1="0" x2="530.40625" y1="0" y2="0" transform="translate(0, 191)" style="fill: none; stroke-width: 1; stroke-linejoin: miter; stroke-linecap: butt; stroke: rgb(231, 231, 231);"/><line x1="0" x2="530.40625" y1="0" y2="0" transform="translate(0, 209)" style="fill: none; stroke-width: 1; stroke-linejoin: miter; stroke-linecap: butt; stroke: rgb(231, 231, 231);"/><line x1="0" x2="530.40625" y1="0" y2="0" transform="translate(0, 228)" style="fill: none; stroke-width: 1; stroke-linejoin: miter; stroke-linecap: butt; stroke: rgb(231, 231, 231);"/><line x1="0" x2="530.40625" y1="0" y2="0" transform="translate(0, 246)" style="fill: none; stroke-width: 1; stroke-linejoin: miter; stroke-linecap: butt; stroke: rgb(231, 231, 231);"/><line x1="0" x2="530.40625" y1="0" y2="0" transform="translate(0, 265)" style="fill: none; stroke-width: 1; stroke-linejoin: miter; stroke-linecap: butt; stroke: rgb(231, 231, 231);"/><line x1="0" x2="530.40625" y1="0" y2="0" transform="translate(0, 283)" style="fill: none; stroke-width: 1; stroke-linejoin: miter; stroke-linecap: butt; stroke: rgb(231, 231, 231);"/><line x1="0" x2="530.40625" y1="0" y2="0" transform="translate(0, 301)" style="fill: none; stroke-width: 1; stroke-linejoin: miter; stroke-linecap: butt; stroke: rgb(231, 231, 231);"/><line x1="0" x2="530.40625" y1="0" y2="0" transform="translate(0, 320)" style="fill: none; stroke-width: 1; stroke-linejoin: miter; stroke-linecap: butt; stroke: rgb(231, 231, 231);"/><line x1="0" x2="530.40625" y1="0" y2="0" transform="translate(0, 338)" style="fill: none; stroke-width: 1; stroke-linejoin: miter; stroke-linecap: butt; stroke: rgb(231, 231, 231);"/><line x1="0" x2="530.40625" y1="0" y2="0" transform="translate(0, 357)" style="fill: none; stroke-width: 1; stroke-linejoin: miter; stroke-linecap: butt; stroke: rgb(231, 231, 231);"/><line x1="0" x2="530.40625" y1="0" y2="0" transform="translate(0, 375)" style="fill: none; stroke-width: 1; stroke-linejoin: miter; stroke-linecap: butt; stroke: rgb(231, 231, 231);"/><line x1="0" x2="530.40625" y1="0" y2="0" transform="translate(0, 393)" style="fill: none; stroke-width: 1; stroke-linejoin: miter; stroke-linecap: butt; stroke: rgb(231, 231, 231);"/><line x1="0" x2="530.40625" y1="0" y2="0" transform="translate(0, 412)" style="fill: none; stroke-width: 1; stroke-linejoin: miter; stroke-linecap: butt; stroke: rgb(231, 231, 231);"/><line x1="0" x2="530.40625" y1="0" y2="0" transform="translate(0, 430)" style="fill: none; stroke-width: 1; stroke-linejoin: miter; stroke-linecap: butt; stroke: rgb(231, 231, 231);"/><line x1="0" x2="530.40625" y1="0" y2="0" transform="translate(0, 449)" style="fill: none; stroke-width: 1; stroke-linejoin: miter; stroke-linecap: butt; stroke: rgb(231, 231, 231);"/><line x1="0" x2="530.40625" y1="0" y2="0" transform="translate(0, 467)" style="fill: none; stroke-width: 1; stroke-linejoin: miter; stroke-linecap: butt; stroke: rgb(231, 231, 231);"/><line x1="0" x2="530.40625" y1="0" y2="0" transform="translate(0, 485)" style="fill: none; stroke-width: 1; stroke-linejoin: miter; stroke-linecap: butt; stroke: rgb(231, 231, 231);"/><line x1="0" x2="530.40625" y1="0" y2="0" transform="translate(0, 504)" style="fill: none; stroke-width: 1; stroke-linejoin: miter; stroke-linecap: butt; stroke: rgb(231, 231, 231);"/><line x1="0" x2="530.40625" y1="0" y2="0" transform="translate(0, 522)" style="fill: none; stroke-width: 1; stroke-linejoin: miter; stroke-linecap: butt; stroke: rgb(231, 231, 231);"/><line x1="0" x2="530.40625" y1="0" y2="0" transform="translate(0, 541)" style="fill: none; stroke-width: 1; stroke-linejoin: miter; stroke-linecap: butt; stroke: rgb(231, 231, 231);"/><line x1="0" x2="530.40625" y1="0" y2="0" transform="translate(0, 559)" style="fill: none; stroke-width: 1; stroke-linejoin: miter; stroke-linecap: butt; stroke: rgb(231, 231, 231);"/><line x1="0" x2="530.40625" y1="0" y2="0" transform="translate(0, 577)" style="fill: none; stroke-width: 1; stroke-linejoin: miter; stroke-linecap: butt; stroke: rgb(231, 231, 231);"/><line x1="0" x2="530.40625" y1="0" y2="0" transform="translate(0, 596)" style="fill: none; stroke-width: 1; stroke-linejoin: miter; stroke-linecap: butt; stroke: rgb(231, 231, 231);"/><line x1="0" x2="530.40625" y1="0" y2="0" transform="translate(0, 614)" style="fill: none; stroke-width: 1; stroke-linejoin: miter; stroke-linecap: butt; stroke: rgb(231, 231, 231);"/><line x1="0" x2="530.40625" y1="0" y2="0" transform="translate(0, 632)" style="fill: none; stroke-width: 1; stroke-linejoin: miter; stroke-linecap: butt; stroke: rgb(231, 231, 231);"/><line x1="0" x2="530.40625" y1="0" y2="0" transform="translate(0, 651)" style="fill: none; stroke-width: 1; stroke-linejoin: miter; stroke-linecap: butt; stroke: rgb(231, 231, 231);"/><line x1="0" x2="530.40625" y1="0" y2="0" transform="translate(0, 669)" style="fill: none; stroke-width: 1; stroke-linejoin: miter; stroke-linecap: butt; stroke: rgb(231, 231, 231);"/><line x1="0" x2="530.40625" y1="0" y2="0" transform="translate(0, 688)" style="fill: none; stroke-width: 1; stroke-linejoin: miter; stroke-linecap: butt; stroke: rgb(231, 231, 231);"/><line x1="0" x2="530.40625" y1="0" y2="0" transform="translate(0, 706)" style="fill: none; stroke-width: 1; stroke-linejoin: miter; stroke-linecap: butt; stroke: rgb(231, 231, 231);"/><line x1="0" x2="530.40625" y1="0" y2="0" transform="translate(0, 724)" style="fill: none; stroke-width: 1; stroke-linejoin: miter; stroke-linecap: butt; stroke: rgb(231, 231, 231);"/><line x1="0" x2="530.40625" y1="0" y2="0" transform="translate(0, 743)" style="fill: none; stroke-width: 1; stroke-linejoin: miter; stroke-linecap: butt; stroke: rgb(231, 231, 231);"/></g></g></g><text transform="translate(183.578125, 109.21875)" style="text-anchor: end;"><tspan fill="rgb(24,24,24)" x="0" y="12" style="font-family: Roboto; font-weight: 400; font-stretch: 100%; font-size: 12px;">I-918</tspan></text><rect width="359.171875" height="6" transform="translate(315.46875, 113.40625)" fill="rgb(106,106,106)" style="fill: rgb(106, 106, 106); opacity: 0.2;"/><text transform="translate(183.578125, 127.609375)" style="text-anchor: end;"><tspan fill="rgb(24,24,24)" x="0" y="12" style="font-family: Roboto; font-weight: 400; font-stretch: 100%; font-size: 12px;">I-526</tspan></text><rect width="301.25" height="6" transform="translate(300.34375, 131.796875)" fill="rgb(106,106,106)" style="fill: rgb(106, 106, 106); opacity: 0.2;"/><text transform="translate(183.578125, 146)" style="text-anchor: end;"><tspan fill="rgb(24,24,24)" x="0" y="12" style="font-family: Roboto; font-weight: 400; font-stretch: 100%; font-size: 12px;">I-829</tspan></text><rect width="302.109375" height="6" transform="translate(267.9375, 150.1875)" fill="rgb(106,106,106)" style="fill: rgb(106, 106, 106); opacity: 0.2;"/><text transform="translate(183.578125, 164.390625)" style="text-anchor: end;"><tspan fill="rgb(24,24,24)" x="0" y="12" style="font-family: Roboto; font-weight: 400; font-stretch: 100%; font-size: 12px;">l-601A</tspan></text><rect width="282.234375" height="6" transform="translate(229.46875, 168.578125)" fill="rgb(106,106,106)" style="fill: rgb(106, 106, 106); opacity: 0.2;"/><text transform="translate(183.578125, 182.78125)" style="text-anchor: end;"><tspan fill="rgb(24,24,24)" x="0" y="12" style="font-family: Roboto; font-weight: 400; font-stretch: 100%; font-size: 12px;">I-924</tspan></text><rect width="79.53125" height="6" transform="translate(305.96875, 186.96875)" fill="rgb(106,106,106)" style="fill: rgb(106, 106, 106); opacity: 0.2;"/><text transform="translate(183.578125, 201.171875)" style="text-anchor: end;"><tspan fill="rgb(24,24,24)" x="0" y="12" style="font-family: Roboto; font-weight: 400; font-stretch: 100%; font-size: 12px;">I-751</tspan></text><rect width="106.328125" height="6" transform="translate(256.703125, 205.359375)" fill="rgb(106,106,106)" style="fill: rgb(106, 106, 106); opacity: 0.2;"/><text transform="translate(183.578125, 219.5625)" style="text-anchor: end;"><tspan fill="rgb(24,24,24)" x="0" y="12" style="font-family: Roboto; font-weight: 400; font-stretch: 100%; font-size: 12px;">I-485 (Asylum)</tspan></text><rect width="126.640625" height="6" transform="translate(224.28125, 223.75)" fill="rgb(106,106,106)" style="fill: rgb(106, 106, 106); opacity: 0.2;"/><text transform="translate(183.578125, 237.953125)" style="text-anchor: end;"><tspan fill="rgb(24,24,24)" x="0" y="12" style="font-family: Roboto; font-weight: 400; font-stretch: 100%; font-size: 12px;">I-730</tspan></text><rect width="77.8125" height="6" transform="translate(236.8125, 242.140625)" fill="rgb(106,106,106)" style="fill: rgb(106, 106, 106); opacity: 0.2;"/><text transform="translate(183.578125, 256.34375)" style="text-anchor: end;"><tspan fill="rgb(24,24,24)" x="0" y="12" style="font-family: Roboto; font-weight: 400; font-stretch: 100%; font-size: 12px;">I-485 (Refugee)</tspan></text><rect width="76.515625" height="6" transform="translate(237.25, 260.53125)" fill="rgb(106,106,106)" style="fill: rgb(106, 106, 106); opacity: 0.2;"/><text transform="translate(183.578125, 274.734375)" style="text-anchor: end;"><tspan fill="rgb(24,24,24)" x="0" y="12" style="font-family: Roboto; font-weight: 400; font-stretch: 100%; font-size: 12px;">I-914</tspan></text><rect width="67" height="6" transform="translate(249.78125, 278.921875)" fill="rgb(106,106,106)" style="fill: rgb(106, 106, 106); opacity: 0.2;"/><text transform="translate(183.578125, 293.125)" style="text-anchor: end;"><tspan fill="rgb(24,24,24)" x="0" y="12" style="font-family: Roboto; font-weight: 400; font-stretch: 100%; font-size: 12px;">I-131</tspan></text><rect width="79.109375" height="6" transform="translate(224.28125, 297.3125)" fill="rgb(106,106,106)" style="fill: rgb(106, 106, 106); opacity: 0.2;"/><text transform="translate(183.578125, 311.515625)" style="text-anchor: end;"><tspan fill="rgb(24,24,24)" x="0" y="12" style="font-family: Roboto; font-weight: 400; font-stretch: 100%; font-size: 12px;">I-485 (Family)</tspan></text><rect width="47.125" height="6" transform="translate(242.4375, 315.703125)" fill="rgb(106,106,106)" style="fill: rgb(106, 106, 106); opacity: 0.2;"/><text transform="translate(183.578125, 329.90625)" style="text-anchor: end;"><tspan fill="rgb(24,24,24)" x="0" y="12" style="font-family: Roboto; font-weight: 400; font-stretch: 100%; font-size: 12px;">I-130</tspan></text><rect width="48.84375" height="6" transform="translate(238.984375, 334.09375)" fill="rgb(106,106,106)" style="fill: rgb(106, 106, 106); opacity: 0.2;"/><text transform="translate(183.578125, 348.296875)" style="text-anchor: end;"><tspan fill="rgb(24,24,24)" x="0" y="12" style="font-family: Roboto; font-weight: 400; font-stretch: 100%; font-size: 12px;">l-129F</tspan></text><rect width="63.109375" height="6" transform="translate(222.5625, 352.484375)" fill="rgb(106,106,106)" style="fill: rgb(106, 106, 106); opacity: 0.2;"/><text transform="translate(183.578125, 366.6875)" style="text-anchor: end;"><tspan fill="rgb(24,24,24)" x="0" y="12" style="font-family: Roboto; font-weight: 400; font-stretch: 100%; font-size: 12px;">Waivers</tspan></text><rect width="28.984375" height="6" transform="translate(250.640625, 370.875)" fill="rgb(106,106,106)" style="fill: rgb(106, 106, 106); opacity: 0.2;"/><text transform="translate(183.578125, 385.078125)" style="text-anchor: end;"><tspan fill="rgb(24,24,24)" x="0" y="12" style="font-family: Roboto; font-weight: 400; font-stretch: 100%; font-size: 12px;">I-485 (Employment)</tspan></text><rect width="40.21875" height="6" transform="translate(235.515625, 389.265625)" fill="rgb(106,106,106)" style="fill: rgb(106, 106, 106); opacity: 0.2;"/><text transform="translate(183.578125, 403.46875)" style="text-anchor: end;"><tspan fill="rgb(24,24,24)" x="0" y="12" style="font-family: Roboto; font-weight: 400; font-stretch: 100%; font-size: 12px;">N-400</tspan></text><rect width="37.625" height="6" transform="translate(238.109375, 407.65625)" fill="rgb(106,106,106)" style="fill: rgb(106, 106, 106); opacity: 0.2;"/><text transform="translate(183.578125, 421.859375)" style="text-anchor: end;"><tspan fill="rgb(24,24,24)" x="0" y="12" style="font-family: Roboto; font-weight: 400; font-stretch: 100%; font-size: 12px;">I-821</tspan></text><rect width="49.71875" height="6" transform="translate(214.78125, 426.046875)" fill="rgb(106,106,106)" style="fill: rgb(106, 106, 106); opacity: 0.2;"/><text transform="translate(183.578125, 440.25)" style="text-anchor: end;"><tspan fill="rgb(24,24,24)" x="0" y="12" style="font-family: Roboto; font-weight: 400; font-stretch: 100%; font-size: 12px;">I-485 (Other)</tspan></text><rect width="89.90625" height="6" transform="translate(258.859375, 444.4375)" fill="rgb(106,106,106)" style="fill: rgb(106, 106, 106); opacity: 0.2;"/><text transform="translate(183.578125, 458.640625)" style="text-anchor: end;"><tspan fill="rgb(24,24,24)" x="0" y="12" style="font-family: Roboto; font-weight: 400; font-stretch: 100%; font-size: 12px;">I-140</tspan></text><rect width="22.0625" height="6" transform="translate(236.8125, 462.828125)" fill="rgb(106,106,106)" style="fill: rgb(106, 106, 106); opacity: 0.2;"/><text transform="translate(183.578125, 477.03125)" style="text-anchor: end;"><tspan fill="rgb(24,24,24)" x="0" y="12" style="font-family: Roboto; font-weight: 400; font-stretch: 100%; font-size: 12px;">N-565</tspan></text><rect width="31.5625" height="6" transform="translate(226.875, 481.21875)" fill="rgb(106,106,106)" style="fill: rgb(106, 106, 106); opacity: 0.2;"/><text transform="translate(183.578125, 495.421875)" style="text-anchor: end;"><tspan fill="rgb(24,24,24)" x="0" y="12" style="font-family: Roboto; font-weight: 400; font-stretch: 100%; font-size: 12px;">I-817</tspan></text><rect width="30.703125" height="6" transform="translate(239.84375, 499.609375)" fill="rgb(106,106,106)" style="fill: rgb(106, 106, 106); opacity: 0.2;"/><text transform="translate(183.578125, 513.8125)" style="text-anchor: end;"><tspan fill="rgb(24,24,24)" x="0" y="12" style="font-family: Roboto; font-weight: 400; font-stretch: 100%; font-size: 12px;">I-131 (Advance Parole)</tspan></text><rect width="37.1875" height="6" transform="translate(213.90625, 518)" fill="rgb(106,106,106)" style="fill: rgb(106, 106, 106); opacity: 0.2;"/><text transform="translate(183.578125, 532.203125)" style="text-anchor: end;"><tspan fill="rgb(24,24,24)" x="0" y="12" style="font-family: Roboto; font-weight: 400; font-stretch: 100%; font-size: 12px;">I-539</tspan></text><rect width="32.859375" height="6" transform="translate(216.078125, 536.390625)" fill="rgb(106,106,106)" style="fill: rgb(106, 106, 106); opacity: 0.2;"/><text transform="translate(183.578125, 550.59375)" style="text-anchor: end;"><tspan fill="rgb(24,24,24)" x="0" y="12" style="font-family: Roboto; font-weight: 400; font-stretch: 100%; font-size: 12px;">I-360</tspan></text><rect width="66.578125" height="6" transform="translate(234.65625, 554.78125)" fill="rgb(106,106,106)" style="fill: rgb(106, 106, 106); opacity: 0.2;"/><text transform="translate(183.578125, 568.984375)" style="text-anchor: end;"><tspan fill="rgb(24,24,24)" x="0" y="12" style="font-family: Roboto; font-weight: 400; font-stretch: 100%; font-size: 12px;">I-765 (I-485)</tspan></text><rect width="33.296875" height="6" transform="translate(213.90625, 573.171875)" fill="rgb(106,106,106)" style="fill: rgb(106, 106, 106); opacity: 0.2;"/><text transform="translate(183.578125, 587.375)" style="text-anchor: end;"><tspan fill="rgb(24,24,24)" x="0" y="12" style="font-family: Roboto; font-weight: 400; font-stretch: 100%; font-size: 12px;">N-600</tspan></text><rect width="12.109375" height="6" transform="translate(246.765625, 591.5625)" fill="rgb(106,106,106)" style="fill: rgb(106, 106, 106); opacity: 0.2;"/><text transform="translate(183.578125, 605.765625)" style="text-anchor: end;"><tspan fill="rgb(24,24,24)" x="0" y="12" style="font-family: Roboto; font-weight: 400; font-stretch: 100%; font-size: 12px;">I-600</tspan></text><rect width="33.71875" height="6" transform="translate(212.1875, 609.953125)" fill="rgb(106,106,106)" style="fill: rgb(106, 106, 106); opacity: 0.2;"/><text transform="translate(183.578125, 624.15625)" style="text-anchor: end;"><tspan fill="rgb(24,24,24)" x="0" y="12" style="font-family: Roboto; font-weight: 400; font-stretch: 100%; font-size: 12px;">I-821D (DACA-initial)</tspan></text><rect width="29.40625" height="6" transform="translate(232.5, 628.34375)" fill="rgb(106,106,106)" style="fill: rgb(106, 106, 106); opacity: 0.2;"/><text transform="translate(183.578125, 642.546875)" style="text-anchor: end;"><tspan fill="rgb(24,24,24)" x="0" y="12" style="font-family: Roboto; font-weight: 400; font-stretch: 100%; font-size: 12px;">I-824</tspan></text><rect width="28.96875" height="6" transform="translate(216.9375, 646.734375)" fill="rgb(106,106,106)" style="fill: rgb(106, 106, 106); opacity: 0.2;"/><text transform="translate(183.578125, 660.9375)" style="text-anchor: end;"><tspan fill="rgb(24,24,24)" x="0" y="12" style="font-family: Roboto; font-weight: 400; font-stretch: 100%; font-size: 12px;">I-485 (Cuban)</tspan></text><rect width="27.6875" height="6" transform="translate(236.8125, 665.125)" fill="rgb(106,106,106)" style="fill: rgb(106, 106, 106); opacity: 0.2;"/><text transform="translate(183.578125, 679.328125)" style="text-anchor: end;"><tspan fill="rgb(24,24,24)" x="0" y="12" style="font-family: Roboto; font-weight: 400; font-stretch: 100%; font-size: 12px;">I-131 (Parole in place)</tspan></text><rect width="22.921875" height="6" transform="translate(213.046875, 683.515625)" fill="rgb(106,106,106)" style="fill: rgb(106, 106, 106); opacity: 0.2;"/><text transform="translate(183.578125, 697.71875)" style="text-anchor: end;"><tspan fill="rgb(24,24,24)" x="0" y="12" style="font-family: Roboto; font-weight: 400; font-stretch: 100%; font-size: 12px;">I-102</tspan></text><rect width="16.859375" height="6" transform="translate(217.375, 701.90625)" fill="rgb(106,106,106)" style="fill: rgb(106, 106, 106); opacity: 0.2;"/><text transform="translate(183.578125, 716.109375)" style="text-anchor: end;"><tspan fill="rgb(24,24,24)" x="0" y="12" style="font-family: Roboto; font-weight: 400; font-stretch: 100%; font-size: 12px;">I-90</tspan></text><rect width="40.640625" height="6" transform="translate(222.125, 720.296875)" fill="rgb(106,106,106)" style="fill: rgb(106, 106, 106); opacity: 0.2;"/><text transform="translate(183.578125, 734.5)" style="text-anchor: end;"><tspan fill="rgb(24,24,24)" x="0" y="12" style="font-family: Roboto; font-weight: 400; font-stretch: 100%; font-size: 12px;">I-765 (Employment authorization)</tspan></text><rect width="9.09375" height="6" transform="translate(212.1875, 738.6875)" fill="rgb(106,106,106)" style="fill: rgb(106, 106, 106); opacity: 0.2;"/><text transform="translate(183.578125, 752.890625)" style="text-anchor: end;"><tspan fill="rgb(24,24,24)" x="0" y="12" style="font-family: Roboto; font-weight: 400; font-stretch: 100%; font-size: 12px;">I-600</tspan></text><rect width="12.109375" height="6" transform="translate(208.296875, 757.078125)" fill="rgb(106,106,106)" style="fill: rgb(106, 106, 106); opacity: 0.2;"/><text transform="translate(183.578125, 771.28125)" style="text-anchor: end;"><tspan fill="rgb(24,24,24)" x="0" y="12" style="font-family: Roboto; font-weight: 400; font-stretch: 100%; font-size: 12px;">I-765 (Asylum)</tspan></text><rect width="6.0625" height="6" transform="translate(209.15625, 775.46875)" fill="rgb(106,106,106)" style="fill: rgb(106, 106, 106); opacity: 0.2;"/><text transform="translate(183.578125, 789.671875)" style="text-anchor: end;"><tspan fill="rgb(24,24,24)" x="0" y="12" style="font-family: Roboto; font-weight: 400; font-stretch: 100%; font-size: 12px;">I-765 (DACA)</tspan></text><rect width="18.171875" height="6" transform="translate(204.40625, 793.859375)" fill="rgb(106,106,106)" style="fill: rgb(106, 106, 106); opacity: 0.2;"/><text transform="translate(183.578125, 808.0625)" style="text-anchor: end;"><tspan fill="rgb(24,24,24)" x="0" y="12" style="font-family: Roboto; font-weight: 400; font-stretch: 100%; font-size: 12px;">I-821D (DACA-renewal)</tspan></text><rect width="10.8125" height="6" transform="translate(204.40625, 812.25)" fill="rgb(106,106,106)" style="fill: rgb(106, 106, 106); opacity: 0.2;"/><text transform="translate(183.578125, 826.453125)" style="text-anchor: end;"><tspan fill="rgb(24,24,24)" x="0" y="12" style="font-family: Roboto; font-weight: 400; font-stretch: 100%; font-size: 12px;">I-765 (Other)</tspan></text><rect width="27.25" height="6" transform="translate(202.671875, 830.640625)" fill="rgb(106,106,106)" style="fill: rgb(106, 106, 106); opacity: 0.2;"/><text transform="translate(183.578125, 844.84375)" style="text-anchor: end;"><tspan fill="rgb(24,24,24)" x="0" y="12" style="font-family: Roboto; font-weight: 400; font-stretch: 100%; font-size: 12px;">I-800</tspan></text><rect width="3.90625" height="6" transform="translate(198.78125, 849.03125)" fill="rgb(106,106,106)" style="fill: rgb(106, 106, 106); opacity: 0.2;"/><g id="grid-container-svg" transform="translate(188.57813, 109.21875)"><g id="grid-svg"><g id="x-tick-labels-svg grid-x-svg number-axis-svg datawrapper-bai82-16k86v8-svg" transform="translate(0, -8)"><text transform="translate(5.8934, 0) translate(-3.5, 0) translate(3.5, 0)" style="text-anchor: middle;"><tspan fill="rgb(162, 162, 162)" style="font-family: Roboto; font-weight: 400; font-stretch: 100%; font-size: 12px;" x="0" dominant-baseline="auto" y="0">0</tspan></text><text transform="translate(92.32998, 0) translate(-6.86914, 0) translate(6.869140625, 0)" style="text-anchor: middle;"><tspan fill="rgb(162, 162, 162)" style="font-family: Roboto; font-weight: 400; font-stretch: 100%; font-size: 12px;" x="0" dominant-baseline="auto" y="0">10</tspan></text><text transform="translate(178.76655, 0) translate(-6.86914, 0) translate(6.869140625, 0)" style="text-anchor: middle;"><tspan fill="rgb(162, 162, 162)" style="font-family: Roboto; font-weight: 400; font-stretch: 100%; font-size: 12px;" x="0" dominant-baseline="auto" y="0">20</tspan></text><text transform="translate(265.20312, 0) translate(-6.86914, 0) translate(6.869140625, 0)" style="text-anchor: middle;"><tspan fill="rgb(162, 162, 162)" style="font-family: Roboto; font-weight: 400; font-stretch: 100%; font-size: 12px;" x="0" dominant-baseline="auto" y="0">30</tspan></text><text transform="translate(351.6397, 0) translate(-6.86914, 0) translate(6.869140625, 0)" style="text-anchor: middle;"><tspan fill="rgb(162, 162, 162)" style="font-family: Roboto; font-weight: 400; font-stretch: 100%; font-size: 12px;" x="0" dominant-baseline="auto" y="0">40</tspan></text><text transform="translate(438.07627, 0) translate(-6.86914, 0) translate(6.869140625, 0)" style="text-anchor: middle;"><tspan fill="rgb(162, 162, 162)" style="font-family: Roboto; font-weight: 400; font-stretch: 100%; font-size: 12px;" x="0" dominant-baseline="auto" y="0">50</tspan></text><text transform="translate(524.51285, 0) translate(-13.73828, 0) translate(13.73828125, 0)" style="text-anchor: end;"><tspan fill="rgb(162, 162, 162)" style="font-family: Roboto; font-weight: 400; font-stretch: 100%; font-size: 12px;" x="0" dominant-baseline="auto" y="0">60</tspan></text></g><g id="y-base-lines-svg grid-y-svg datawrapper-bai82-1io9s9d-svg"/></g></g><circle r="5" cx="315.46875" cy="116.40625" fill="rgb(132,147,36)"/><circle r="5" cx="585.59375" cy="116.40625" fill="rgb(166,0,103)"/><circle r="5" cx="674.625" cy="116.40625" fill="rgb(255,179,15)"/><circle r="5" cx="300.34375" cy="134.796875" fill="rgb(132,147,36)"/><circle r="5" cx="353.9375" cy="134.796875" fill="rgb(166,0,103)"/><circle r="5" cx="601.578125" cy="134.796875" fill="rgb(255,179,15)"/><circle r="5" cx="267.9375" cy="153.1875" fill="rgb(132,147,36)"/><circle r="5" cx="395.859375" cy="153.1875" fill="rgb(166,0,103)"/><circle r="5" cx="570.03125" cy="153.1875" fill="rgb(255,179,15)"/><circle r="5" cx="229.46875" cy="171.578125" fill="rgb(132,147,36)"/><circle r="5" cx="251.9375" cy="171.578125" fill="rgb(166,0,103)"/><circle r="5" cx="511.6875" cy="171.578125" fill="rgb(255,179,15)"/><circle r="5" cx="305.96875" cy="189.96875" fill="rgb(132,147,36)"/><circle r="5" cx="359.125" cy="189.96875" fill="rgb(166,0,103)"/><circle r="5" cx="385.484375" cy="189.96875" fill="rgb(255,179,15)"/><circle r="5" cx="256.703125" cy="208.359375" fill="rgb(132,147,36)"/><circle r="5" cx="318.5" cy="208.359375" fill="rgb(166,0,103)"/><circle r="5" cx="363.015625" cy="208.359375" fill="rgb(255,179,15)"/><circle r="5" cx="224.28125" cy="226.75" fill="rgb(132,147,36)"/><circle r="5" cx="250.21875" cy="226.75" fill="rgb(166,0,103)"/><circle r="5" cx="350.90625" cy="226.75" fill="rgb(255,179,15)"/><circle r="5" cx="236.8125" cy="245.140625" fill="rgb(132,147,36)"/><circle r="5" cx="295.59375" cy="245.140625" fill="rgb(166,0,103)"/><circle r="5" cx="314.609375" cy="245.140625" fill="rgb(255,179,15)"/><circle r="5" cx="237.25" cy="263.53125" fill="rgb(132,147,36)"/><circle r="5" cx="262.3125" cy="263.53125" fill="rgb(166,0,103)"/><circle r="5" cx="313.75" cy="263.53125" fill="rgb(255,179,15)"/><circle r="5" cx="249.78125" cy="281.921875" fill="rgb(132,147,36)"/><circle r="5" cx="316.765625" cy="281.921875" fill="rgb(166,0,103)"/><circle r="5" cx="308.984375" cy="281.921875" fill="rgb(255,179,15)"/><circle r="5" cx="229.46875" cy="300.3125" fill="rgb(132,147,36)"/><circle r="5" cx="224.28125" cy="300.3125" fill="rgb(166,0,103)"/><circle r="5" cx="303.375" cy="300.3125" fill="rgb(255,179,15)"/><circle r="5" cx="242.4375" cy="318.703125" fill="rgb(132,147,36)"/><circle r="5" cx="278.734375" cy="318.703125" fill="rgb(166,0,103)"/><circle r="5" cx="289.546875" cy="318.703125" fill="rgb(255,179,15)"/><circle r="5" cx="238.984375" cy="337.09375" fill="rgb(132,147,36)"/><circle r="5" cx="263.1875" cy="337.09375" fill="rgb(166,0,103)"/><circle r="5" cx="287.8125" cy="337.09375" fill="rgb(255,179,15)"/><circle r="5" cx="222.5625" cy="355.484375" fill="rgb(132,147,36)"/><circle r="5" cx="236.8125" cy="355.484375" fill="rgb(166,0,103)"/><circle r="5" cx="285.65625" cy="355.484375" fill="rgb(255,179,15)"/><circle r="5" cx="250.640625" cy="373.875" fill="rgb(132,147,36)"/><circle r="5" cx="279.609375" cy="373.875" fill="rgb(166,0,103)"/><circle r="5" cx="279.171875" cy="373.875" fill="rgb(255,179,15)"/><circle r="5" cx="235.515625" cy="392.265625" fill="rgb(132,147,36)"/><circle r="5" cx="275.71875" cy="392.265625" fill="rgb(166,0,103)"/><circle r="5" cx="274.421875" cy="392.265625" fill="rgb(255,179,15)"/><circle r="5" cx="238.109375" cy="410.65625" fill="rgb(132,147,36)"/><circle r="5" cx="275.71875" cy="410.65625" fill="rgb(166,0,103)"/><circle r="5" cx="266.203125" cy="410.65625" fill="rgb(255,179,15)"/><circle r="5" cx="214.78125" cy="429.046875" fill="rgb(132,147,36)"/><circle r="5" cx="221.6875" cy="429.046875" fill="rgb(166,0,103)"/><circle r="5" cx="264.484375" cy="429.046875" fill="rgb(255,179,15)"/><circle r="5" cx="258.859375" cy="447.4375" fill="rgb(132,147,36)"/><circle r="5" cx="348.75" cy="447.4375" fill="rgb(166,0,103)"/><circle r="5" cx="262.3125" cy="447.4375" fill="rgb(255,179,15)"/><circle r="5" cx="236.8125" cy="465.828125" fill="rgb(132,147,36)"/><circle r="5" cx="251.078125" cy="465.828125" fill="rgb(166,0,103)"/><circle r="5" cx="258.859375" cy="465.828125" fill="rgb(255,179,15)"/><circle r="5" cx="242.4375" cy="484.21875" fill="rgb(132,147,36)"/><circle r="5" cx="226.875" cy="484.21875" fill="rgb(166,0,103)"/><circle r="5" cx="258.421875" cy="484.21875" fill="rgb(255,179,15)"/><circle r="5" cx="239.84375" cy="502.609375" fill="rgb(132,147,36)"/><circle r="5" cx="270.53125" cy="502.609375" fill="rgb(166,0,103)"/><circle r="5" cx="256.703125" cy="502.609375" fill="rgb(255,179,15)"/><circle r="5" cx="213.90625" cy="521" fill="rgb(132,147,36)"/><circle r="5" cx="229.46875" cy="521" fill="rgb(166,0,103)"/><circle r="5" cx="251.078125" cy="521" fill="rgb(255,179,15)"/><circle r="5" cx="216.078125" cy="539.390625" fill="rgb(132,147,36)"/><circle r="5" cx="228.171875" cy="539.390625" fill="rgb(166,0,103)"/><circle r="5" cx="248.921875" cy="539.390625" fill="rgb(255,179,15)"/><circle r="5" cx="234.65625" cy="557.78125" fill="rgb(132,147,36)"/><circle r="5" cx="301.21875" cy="557.78125" fill="rgb(166,0,103)"/><circle r="5" cx="247.625" cy="557.78125" fill="rgb(255,179,15)"/><circle r="5" cx="213.90625" cy="576.171875" fill="rgb(132,147,36)"/><circle r="5" cx="232.921875" cy="576.171875" fill="rgb(166,0,103)"/><circle r="5" cx="247.1875" cy="576.171875" fill="rgb(255,179,15)"/><circle r="5" cx="248.484375" cy="594.5625" fill="rgb(132,147,36)"/><circle r="5" cx="258.859375" cy="594.5625" fill="rgb(166,0,103)"/><circle r="5" cx="246.765625" cy="594.5625" fill="rgb(255,179,15)"/><circle r="5" cx="221.6875" cy="612.953125" fill="rgb(132,147,36)"/><circle r="5" cx="212.1875" cy="612.953125" fill="rgb(166,0,103)"/><circle r="5" cx="245.890625" cy="612.953125" fill="rgb(255,179,15)"/><circle r="5" cx="232.5" cy="631.34375" fill="rgb(132,147,36)"/><circle r="5" cx="261.890625" cy="631.34375" fill="rgb(166,0,103)"/><circle r="5" cx="245.46875" cy="631.34375" fill="rgb(255,179,15)"/><circle r="5" cx="216.9375" cy="649.734375" fill="rgb(132,147,36)"/><circle r="5" cx="245.890625" cy="649.734375" fill="rgb(166,0,103)"/><circle r="5" cx="239.40625" cy="649.734375" fill="rgb(255,179,15)"/><circle r="5" cx="264.484375" cy="668.125" fill="rgb(132,147,36)"/><circle r="5" cx="258" cy="668.125" fill="rgb(166,0,103)"/><circle r="5" cx="236.8125" cy="668.125" fill="rgb(255,179,15)"/><circle r="5" cx="213.046875" cy="686.515625" fill="rgb(132,147,36)"/><circle r="5" cx="222.984375" cy="686.515625" fill="rgb(166,0,103)"/><circle r="5" cx="235.953125" cy="686.515625" fill="rgb(255,179,15)"/><circle r="5" cx="217.375" cy="704.90625" fill="rgb(132,147,36)"/><circle r="5" cx="228.171875" cy="704.90625" fill="rgb(166,0,103)"/><circle r="5" cx="234.21875" cy="704.90625" fill="rgb(255,179,15)"/><circle r="5" cx="247.1875" cy="723.296875" fill="rgb(132,147,36)"/><circle r="5" cx="262.75" cy="723.296875" fill="rgb(166,0,103)"/><circle r="5" cx="222.125" cy="723.296875" fill="rgb(255,179,15)"/><circle r="5" cx="212.1875" cy="741.6875" fill="rgb(132,147,36)"/><circle r="5" cx="217.796875" cy="741.6875" fill="rgb(166,0,103)"/><circle r="5" cx="221.265625" cy="741.6875" fill="rgb(255,179,15)"/><circle r="5" cx="208.296875" cy="760.078125" fill="rgb(132,147,36)"/><circle r="5" cx="211.3125" cy="760.078125" fill="rgb(166,0,103)"/><circle r="5" cx="220.390625" cy="760.078125" fill="rgb(255,179,15)"/><circle r="5" cx="209.15625" cy="778.46875" fill="rgb(132,147,36)"/><circle r="5" cx="210.453125" cy="778.46875" fill="rgb(166,0,103)"/><circle r="5" cx="215.203125" cy="778.46875" fill="rgb(255,179,15)"/><circle r="5" cx="222.5625" cy="796.859375" fill="rgb(132,147,36)"/><circle r="5" cx="204.40625" cy="796.859375" fill="rgb(166,0,103)"/><circle r="5" cx="206.5625" cy="796.859375" fill="rgb(255,179,15)"/><circle r="5" cx="215.203125" cy="815.25" fill="rgb(132,147,36)"/><circle r="5" cx="204.40625" cy="815.25" fill="rgb(166,0,103)"/><circle r="5" cx="206.5625" cy="815.25" fill="rgb(255,179,15)"/><circle r="5" cx="212.1875" cy="833.640625" fill="rgb(132,147,36)"/><circle r="5" cx="229.90625" cy="833.640625" fill="rgb(166,0,103)"/><circle r="5" cx="202.671875" cy="833.640625" fill="rgb(255,179,15)"/><circle r="5" cx="198.78125" cy="852.03125" fill="rgb(132,147,36)"/><circle r="5" cx="199.65625" cy="852.03125" fill="rgb(166,0,103)"/><circle r="5" cx="202.671875" cy="852.03125" fill="rgb(255,179,15)"/><circle r="7" cx="7" cy="70.828125" fill="rgb(132,147,36)"/><circle r="7" cx="115.25" cy="70.828125" fill="rgb(166,0,103)"/><circle r="7" cx="219.59375" cy="70.828125" fill="rgb(255,179,15)"/></g><g id="container-svg container-footer-svg datawrapper-bai82-1o125dc-svg"><text transform="translate(0, 879.234375)"><tspan fill="rgb(101,101,101)" x="0" y="12" style="font-family: Roboto; font-weight: 400; font-stretch: 100%; font-style: italic; font-size: 12px;">President timeframe of terms used: Obama 2nd term, Trump 1st term, Biden 1st term</tspan></text><text transform="translate(0, 898.234375)"><tspan fill="rgb(136,136,136)" x="0" y="11" style="font-family: Roboto; font-weight: 400; font-stretch: 100%; font-size: 11px;">Chart:</tspan><tspan fill="rgb(136,136,136)" dx="2.734375" style="font-family: Roboto; font-weight: 400; font-stretch: 100%; font-size: 11px;">Rambo Talabong</tspan><tspan fill="rgb(136,136,136)" dx="2.739" style="font-family: Roboto; font-weight: 400; font-stretch: 100%; font-size: 11px;">•</tspan><tspan fill="rgb(136,136,136)" dx="2.739" style="font-family: Roboto; font-weight: 400; font-stretch: 100%; font-size: 11px;">Source:</tspan><tspan fill="rgb(136,136,136)" dx="2.734375" style="font-family: Roboto; font-weight: 400; font-stretch: 100%; font-size: 11px;">U.S. Citizenship and Immigration Services</tspan><tspan fill="rgb(136,136,136)" dx="2.739" style="font-family: Roboto; font-weight: 400; font-stretch: 100%; font-size: 11px;">•</tspan><tspan fill="rgb(136,136,136)" dx="2.739" style="font-family: Roboto; font-weight: 400; font-stretch: 100%; font-size: 11px;">Created with</tspan><tspan fill="rgb(136,136,136)" dx="2.734375" style="font-family: Roboto; font-weight: 400; font-stretch: 100%; font-size: 11px;">Datawrapper</tspan></text></g></g></g></svg>