<?xml version="1.0" encoding="UTF-8"?>
<svg id="Layer_1" data-name="Layer 1" xmlns="http://www.w3.org/2000/svg" xmlns:xlink="http://www.w3.org/1999/xlink" version="1.1" viewBox="0 0 1057.2 1734.7">
  <defs>
    <style>
      .cls-1 {
        stroke: url(#linear-gradient-5);
        stroke-width: 14.9px;
      }

      .cls-1, .cls-2, .cls-3, .cls-4, .cls-5, .cls-6, .cls-7, .cls-8, .cls-9, .cls-10, .cls-11, .cls-12, .cls-13, .cls-14, .cls-15, .cls-16, .cls-17, .cls-18, .cls-19, .cls-20, .cls-21, .cls-22, .cls-23, .cls-24, .cls-25, .cls-26, .cls-27, .cls-28, .cls-29, .cls-30, .cls-31, .cls-32, .cls-33, .cls-34, .cls-35, .cls-36, .cls-37, .cls-38, .cls-39, .cls-40 {
        isolation: isolate;
      }

      .cls-1, .cls-2, .cls-3, .cls-5, .cls-6, .cls-8, .cls-9, .cls-10, .cls-11, .cls-12, .cls-13, .cls-15, .cls-16, .cls-18, .cls-19, .cls-20, .cls-21, .cls-22, .cls-23, .cls-24, .cls-25, .cls-26, .cls-27, .cls-28, .cls-29, .cls-31, .cls-32, .cls-33, .cls-35, .cls-36, .cls-37, .cls-38, .cls-39, .cls-40 {
        opacity: .8;
      }

      .cls-1, .cls-2, .cls-3, .cls-5, .cls-6, .cls-8, .cls-9, .cls-10, .cls-11, .cls-12, .cls-13, .cls-15, .cls-16, .cls-18, .cls-19, .cls-21, .cls-22, .cls-23, .cls-41, .cls-24, .cls-25, .cls-26, .cls-27, .cls-28, .cls-29, .cls-31, .cls-32, .cls-33, .cls-35, .cls-36, .cls-37, .cls-38, .cls-39, .cls-40 {
        fill: none;
      }

      .cls-2 {
        stroke: url(#linear-gradient-6);
        stroke-width: 14.1px;
      }

      .cls-3 {
        stroke: url(#linear-gradient-19);
        stroke-width: 46.8px;
      }

      .cls-4 {
        font-size: 36px;
      }

      .cls-4, .cls-7 {
        font-family: FranklinGothicURW-Med, 'FranklinGothic URW';
      }

      .cls-4, .cls-7, .cls-14, .cls-17, .cls-42, .cls-34 {
        fill: #000;
      }

      .cls-5 {
        stroke: url(#linear-gradient-18);
        stroke-width: 54.4px;
      }

      .cls-6 {
        stroke: url(#linear-gradient-8);
      }

      .cls-7 {
        font-size: 14px;
      }

      .cls-43 {
        fill: #ffb30f;
      }

      .cls-43, .cls-44, .cls-45, .cls-46, .cls-47, .cls-42, .cls-48, .cls-49, .cls-50 {
        stroke-width: 0px;
      }

      .cls-44 {
        fill: #849324;
      }

      .cls-8 {
        stroke: url(#linear-gradient-3);
        stroke-width: 25.5px;
      }

      .cls-9 {
        stroke: url(#linear-gradient-10);
        stroke-width: 3px;
      }

      .cls-45 {
        fill: #f45b69;
      }

      .cls-10 {
        stroke: url(#linear-gradient-29);
        stroke-width: 7.4px;
      }

      .cls-46 {
        fill: #550c18;
      }

      .cls-11 {
        stroke: url(#linear-gradient-14);
      }

      .cls-12 {
        stroke: url(#linear-gradient-15);
      }

      .cls-13 {
        stroke: url(#linear-gradient-27);
        stroke-width: 17.4px;
      }

      .cls-47 {
        fill: #a60067;
      }

      .cls-14 {
        font-family: ArialMT, Arial;
      }

      .cls-14, .cls-17, .cls-34 {
        font-size: 12px;
      }

      .cls-15 {
        stroke: url(#linear-gradient-32);
        stroke-width: 58.1px;
      }

      .cls-16 {
        stroke: url(#linear-gradient-13);
        stroke-width: 1.5px;
      }

      .cls-17 {
        font-family: FranklinGothicURW-Lig, 'FranklinGothic URW';
      }

      .cls-18 {
        stroke: url(#linear-gradient-34);
        stroke-width: 27.9px;
      }

      .cls-19 {
        stroke: url(#linear-gradient-25);
        stroke-width: 29.7px;
      }

      .cls-20 {
        fill: url(#linear-gradient);
        stroke: url(#linear-gradient-2);
        stroke-width: 79px;
      }

      .cls-21 {
        stroke: url(#linear-gradient-16);
        stroke-width: 76.6px;
      }

      .cls-22 {
        stroke: url(#linear-gradient-26);
        stroke-width: 18.5px;
      }

      .cls-23 {
        stroke: url(#linear-gradient-35);
        stroke-width: 15.1px;
      }

      .cls-41 {
        stroke: #000;
        stroke-miterlimit: 10;
      }

      .cls-48 {
        fill: #023618;
      }

      .cls-24 {
        stroke: url(#linear-gradient-17);
        stroke-width: 68.1px;
      }

      .cls-25 {
        stroke: url(#linear-gradient-31);
        stroke-width: 59.1px;
      }

      .cls-26 {
        stroke: url(#linear-gradient-9);
        stroke-width: 8.8px;
      }

      .cls-27 {
        stroke: url(#linear-gradient-24);
        stroke-width: 31.9px;
      }

      .cls-49 {
        fill-opacity: .8;
      }

      .cls-49, .cls-50 {
        fill: #fff;
      }

      .cls-28 {
        stroke: url(#linear-gradient-20);
        stroke-width: 31.8px;
      }

      .cls-29 {
        stroke: url(#linear-gradient-28);
        stroke-width: 15.6px;
      }

      .cls-31 {
        stroke: url(#linear-gradient-11);
        stroke-width: 1.9px;
      }

      .cls-32 {
        stroke: url(#linear-gradient-22);
        stroke-width: 2.4px;
      }

      .cls-33 {
        stroke: url(#linear-gradient-33);
        stroke-width: 45.7px;
      }

      .cls-34 {
        font-family: Helvetica, Helvetica;
      }

      .cls-51, .cls-50 {
        display: none;
      }

      .cls-35 {
        stroke: url(#linear-gradient-30);
        stroke-width: 74.1px;
      }

      .cls-36 {
        stroke: url(#linear-gradient-7);
        stroke-width: 10.6px;
      }

      .cls-37 {
        stroke: url(#linear-gradient-21);
        stroke-width: 16.1px;
      }

      .cls-38 {
        stroke: url(#linear-gradient-4);
        stroke-width: 21.2px;
      }

      .cls-39 {
        stroke: url(#linear-gradient-12);
        stroke-width: 1.6px;
      }

      .cls-40 {
        stroke: url(#linear-gradient-23);
        stroke-width: 84.1px;
      }
    </style>
    <linearGradient id="linear-gradient" x1="-68" y1="1015.8" x2="-56.7" y2="1015.8" gradientTransform="translate(1212.3 2257.3) scale(7.2 -1)" gradientUnits="userSpaceOnUse">
      <stop offset="0" stop-color="#fff"/>
      <stop offset="1" stop-color="#000"/>
    </linearGradient>
    <linearGradient id="linear-gradient-2" x1="737.5" y1="823.2" x2="737.5" y2="186.2" gradientTransform="translate(0 736.8)" gradientUnits="userSpaceOnUse">
      <stop offset="0" stop-color="#f45b69"/>
      <stop offset=".2" stop-color="#d3565e"/>
      <stop offset=".5" stop-color="#824942"/>
      <stop offset="1" stop-color="#023618"/>
    </linearGradient>
    <linearGradient id="linear-gradient-3" x1="457" y1="815.3" x2="457" y2="187" xlink:href="#linear-gradient-2"/>
    <linearGradient id="linear-gradient-4" x1="534.6" y1="815.2" x2="534.6" y2="187.6" xlink:href="#linear-gradient-2"/>
    <linearGradient id="linear-gradient-5" x1="827.9" y1="815.7" x2="827.9" y2="187.8" xlink:href="#linear-gradient-2"/>
    <linearGradient id="linear-gradient-6" x1="624.8" y1="816.6" x2="624.8" y2="188.1" xlink:href="#linear-gradient-2"/>
    <linearGradient id="linear-gradient-7" x1="401.2" y1="815.2" x2="401.2" y2="186.8" xlink:href="#linear-gradient-2"/>
    <linearGradient id="linear-gradient-8" x1="365" y1="814.7" x2="365" y2="187.9" xlink:href="#linear-gradient-2"/>
    <linearGradient id="linear-gradient-9" x1="403.9" y1="810.1" x2="403.9" y2="187.8" gradientTransform="translate(0 736.8)" gradientUnits="userSpaceOnUse">
      <stop offset="0" stop-color="#550c18"/>
      <stop offset=".4" stop-color="#351c18"/>
      <stop offset="1" stop-color="#023618"/>
    </linearGradient>
    <linearGradient id="linear-gradient-10" x1="181.1" y1="810" x2="181.1" y2="186.9" xlink:href="#linear-gradient-9"/>
    <linearGradient id="linear-gradient-11" x1="318.6" y1="810.1" x2="318.6" y2="187.8" xlink:href="#linear-gradient-9"/>
    <linearGradient id="linear-gradient-12" x1="238.9" y1="810" x2="238.9" y2="187.3" xlink:href="#linear-gradient-9"/>
    <linearGradient id="linear-gradient-13" x1="510.4" y1="810.1" x2="510.4" y2="187.8" xlink:href="#linear-gradient-9"/>
    <linearGradient id="linear-gradient-14" x1="145.1" y1="810.1" x2="145.1" y2="186.7" xlink:href="#linear-gradient-9"/>
    <linearGradient id="linear-gradient-15" x1="127.1" y1="810.1" x2="127.1" y2="187.9" xlink:href="#linear-gradient-9"/>
    <linearGradient id="linear-gradient-16" x1="484.2" y1="888.9" x2="484.2" y2="186.7" gradientTransform="translate(0 736.8)" gradientUnits="userSpaceOnUse">
      <stop offset="0" stop-color="#a60067"/>
      <stop offset=".2" stop-color="#860a57"/>
      <stop offset=".7" stop-color="#352530"/>
      <stop offset="1" stop-color="#023618"/>
    </linearGradient>
    <linearGradient id="linear-gradient-17" x1="366.9" y1="891" x2="366.9" y2="187.3" xlink:href="#linear-gradient-16"/>
    <linearGradient id="linear-gradient-18" x1="595.7" y1="887" x2="595.7" y2="187.5" xlink:href="#linear-gradient-16"/>
    <linearGradient id="linear-gradient-19" x1="276.4" y1="886.4" x2="276.4" y2="186.9" xlink:href="#linear-gradient-16"/>
    <linearGradient id="linear-gradient-20" x1="217.4" y1="886.4" x2="217.4" y2="186.6" xlink:href="#linear-gradient-16"/>
    <linearGradient id="linear-gradient-21" x1="705.9" y1="889.5" x2="705.9" y2="187.3" xlink:href="#linear-gradient-16"/>
    <linearGradient id="linear-gradient-22" x1="184.8" y1="886" x2="184.8" y2="187.9" xlink:href="#linear-gradient-16"/>
    <linearGradient id="linear-gradient-23" x1="671.8" y1="-522.8" x2="671.8" y2="176.8" gradientTransform="translate(0 736.8)" gradientUnits="userSpaceOnUse">
      <stop offset="0" stop-color="#ffb30f"/>
      <stop offset="0" stop-color="#f3ad0f"/>
      <stop offset=".2" stop-color="#d59e10"/>
      <stop offset=".4" stop-color="#a38512"/>
      <stop offset=".7" stop-color="#5e6314"/>
      <stop offset="1" stop-color="#083917"/>
      <stop offset="1" stop-color="#023618"/>
    </linearGradient>
    <linearGradient id="linear-gradient-24" x1="461.3" y1="-522.5" x2="461.3" y2="175.7" xlink:href="#linear-gradient-23"/>
    <linearGradient id="linear-gradient-25" x1="381.6" y1="-522.6" x2="381.6" y2="175.2" xlink:href="#linear-gradient-23"/>
    <linearGradient id="linear-gradient-26" x1="556.8" y1="-522.3" x2="556.8" y2="176.1" xlink:href="#linear-gradient-23"/>
    <linearGradient id="linear-gradient-27" x1="764.8" y1="-521.9" x2="764.8" y2="175.8" xlink:href="#linear-gradient-23"/>
    <linearGradient id="linear-gradient-28" x1="323.4" y1="-522.6" x2="323.4" y2="174.8" xlink:href="#linear-gradient-23"/>
    <linearGradient id="linear-gradient-29" x1="284.2" y1="-522.6" x2="284.2" y2="176" xlink:href="#linear-gradient-23"/>
    <linearGradient id="linear-gradient-30" x1="431.7" y1="-523.1" x2="431.7" y2="176.1" gradientTransform="translate(0 736.8)" gradientUnits="userSpaceOnUse">
      <stop offset="0" stop-color="#849324"/>
      <stop offset=".3" stop-color="#647c21"/>
      <stop offset=".9" stop-color="#134219"/>
      <stop offset="1" stop-color="#023618"/>
    </linearGradient>
    <linearGradient id="linear-gradient-31" x1="315.9" y1="-523.4" x2="315.9" y2="175.5" xlink:href="#linear-gradient-30"/>
    <linearGradient id="linear-gradient-32" x1="541.5" y1="-522.9" x2="541.5" y2="175.9" xlink:href="#linear-gradient-30"/>
    <linearGradient id="linear-gradient-33" x1="229.3" y1="-523.5" x2="229.3" y2="175.1" xlink:href="#linear-gradient-30"/>
    <linearGradient id="linear-gradient-34" x1="171.9" y1="-523.6" x2="171.9" y2="174.7" xlink:href="#linear-gradient-30"/>
    <linearGradient id="linear-gradient-35" x1="654.9" y1="-522.6" x2="654.9" y2="176.6" xlink:href="#linear-gradient-30"/>
  </defs>
  <g id="sankey">
    <g id="old_text" data-name="old text" class="cls-51">
      <g class="cls-30">
        <g class="cls-30">
          <g class="cls-30">
            <text class="cls-34" transform="translate(440.6 1651.6) rotate(.2)"><tspan x="0" y="0">Pending</tspan></text>
          </g>
        </g>
      </g>
      <rect id="label0_bg" data-name="label0 bg" class="cls-49" x="581.5" y="139.5" width="31.2" height="79.3" rx="3" ry="3" transform="translate(415.9 775.6) rotate(-89.8)"/>
      <g class="cls-30">
        <g class="cls-30">
          <g class="cls-30">
            <text class="cls-14" transform="translate(568.4 197.2) rotate(.2)"><tspan x="0" y="0">New petitions</tspan></text>
          </g>
        </g>
      </g>
      <rect id="label2_bg" data-name="label2 bg" class="cls-49" x="330.9" y="163.1" width="74" height="31.2" rx="3" ry="3" transform="translate(-.6 1.3) rotate(-.2)"/>
      <g class="cls-30">
        <g class="cls-30">
          <g class="cls-30">
            <text class="cls-14" transform="translate(330.8 197.2) rotate(-.2)"><tspan x="0" y="0">Old petitions</tspan></text>
          </g>
        </g>
      </g>
      <rect id="label3_bg" data-name="label3 bg" class="cls-49" x="641.5" y="1579.3" width="60.7" height="31.2" rx="3" ry="3" transform="translate(-925.4 2261.2) rotate(-89.8)"/>
      <g class="cls-30">
        <g class="cls-30">
          <g class="cls-30">
            <text class="cls-34" transform="translate(723.8 1581.8) rotate(.2)"><tspan x="0" y="0">Approved</tspan></text>
          </g>
        </g>
      </g>
      <rect id="label4_bg" data-name="label4 bg" class="cls-49" x="216.7" y="1569.7" width="50.7" height="31.2" rx="3" ry="3" transform="translate(-1344 1821.8) rotate(-89.8)"/>
      <g class="cls-30">
        <g class="cls-30">
          <g class="cls-30">
            <text class="cls-34" transform="translate(184.2 1577.7) rotate(.2)"><tspan x="0" y="0">Denied</tspan></text>
          </g>
        </g>
      </g>
    </g>
    <rect class="cls-50" x="-421.4" y="409.1" width="1600" height="1000" transform="translate(-531.8 1284.5) rotate(-89.8)"/>
    <g id="gfx">
      <g id="approved">
        <path id="approved7" class="cls-20" d="M697.7,924.1c-10.8,393.6,89.7,241.3,79.7,634.9"/>
        <path id="approved6" class="cls-8" d="M224,923.9c-1.7,388.6,467.5,239.5,466,628.2"/>
        <path id="approved5" class="cls-38" d="M355.9,924.4c-1.8,388.5,359.2,239.2,357.4,627.6"/>
        <path id="approved4" class="cls-1" d="M831.4,924.6c-.2,389.5-6.9,238.5-7.1,627.9"/>
        <path id="approved3" class="cls-2" d="M518.6,924.9c-2.2,389.3,214.6,239.1,212.4,628.5"/>
        <path id="approved2" class="cls-36" d="M130.4,923.6c-1.6,388.6,543.2,239.8,541.6,628.4"/>
        <path id="approved1" class="cls-6" d="M63.9,924.7c-1.6,387.4,603.8,239.3,602.2,626.8"/>
      </g>
      <g id="denied">
        <path id="denied7" class="cls-26" d="M599.2,924.6c-1.4,386.6-389.2,235.7-390.6,622.3"/>
        <path id="denied6" class="cls-9" d="M163,923.7c-1.4,386.2,37.6,236.9,36.2,623.1"/>
        <path id="denied5" class="cls-31" d="M433.9,924.6c-1.4,386.3-229.3,236-230.7,622.3"/>
        <path id="denied4" class="cls-39" d="M276.3,924.1c-1.4,386.2-73.5,236.5-74.9,622.7"/>
        <path id="denied3" class="cls-16" d="M807.1,924.6c-1.5,387.1-591.9,235.3-593.4,622.3"/>
        <path id="denied2" class="cls-11" d="M92.8,923.5c-1.4,386.3,105.8,237.1,104.5,623.4"/>
        <path id="denied1" class="cls-12" d="M57.9,924.7c-1.4,385.4,139.7,236.7,138.3,622.2"/>
      </g>
      <g id="pending">
        <path id="pending7" class="cls-21" d="M473.3,923.9c4,434.9,17.5,266.5,21.7,701.4"/>
        <path id="pending6" class="cls-24" d="M311.2,924.3c-2,435.8,113.3,267.4,111.3,703.3"/>
        <path id="pending5" class="cls-5" d="M630.9,924.4c-1.1,433.7-69.2,265.5-70.4,699.3"/>
        <path id="pending4" class="cls-3" d="M187.9,923.8c-1.8,433.2,179,266.1,177,699.3"/>
        <path id="pending3" class="cls-28" d="M109.2,923.5c-1.7,433.3,218.1,266.3,216.3,699.6"/>
        <path id="pending2" class="cls-37" d="M815.9,924.1c-1.6,435.8-218.6,266.4-220.1,702.2"/>
        <path id="pending1" class="cls-32" d="M61.1,924.7c-1.7,432.3,249,265.7,247.3,698.1"/>
      </g>
      <g id="new">
        <path id="new1" class="cls-40" d="M648.6,214.2c-1.8,433.5,48.1,265.8,46.3,699.2"/>
        <path id="new2" class="cls-27" d="M572,214.4c-1.5,433.2-219.8,264.7-221.4,698"/>
        <path id="new3" class="cls-19" d="M541.2,214.3c-1.5,433.2-317.6,264.4-319.2,697.6"/>
        <path id="new4" class="cls-22" d="M597.2,214.5c-1.5,433.2-79.3,265.2-80.8,698.4"/>
        <path id="new5" class="cls-13" d="M699.3,214.9c-1.8,432.3,132.8,265.3,131,697.7"/>
        <path id="new6" class="cls-29" d="M518.6,214.2c-1.5,433.2-389,264.1-390.5,697.4"/>
        <path id="new7" class="cls-10" d="M507.1,214.2c-1.5,434.1-444.4,264.5-445.9,698.6"/>
      </g>
      <g id="old">
        <path id="old1" class="cls-35" d="M393.2,213.8c-1.5,433.2,78.5,265.8,77,699"/>
        <path id="old2" class="cls-25" d="M326.6,213.5c-1.5,433.2-20,265.5-21.5,698.7"/>
        <path id="old3" class="cls-15" d="M459.2,214c-1.6,432.8,166.1,265.8,164.6,698.6"/>
        <path id="old4" class="cls-33" d="M274.2,213.4c-1.5,433.2-88.3,265.2-89.9,698.4"/>
        <path id="old5" class="cls-18" d="M237.4,213.2c-1.5,433.2-129.6,265.1-131.1,698.3"/>
        <path id="old6" class="cls-23" d="M495.8,214.2c-1.6,432.9,319.9,266.4,318.2,699.2"/>
      </g>
      <g id="bars">
        <rect id="r0" class="cls-43" x="599.8" y="106.2" width="12" height="204.6" transform="translate(395.1 813.6) rotate(-89.8)"/>
        <rect id="r1" class="cls-48" x="816.7" y="902.4" width="12.1" height="32.6" transform="translate(-98.8 1738.2) rotate(-89.8)"/>
        <rect id="r2" class="cls-44" x="357.4" y="67.7" width="12" height="279.9" transform="translate(154.5 570.3) rotate(-89.8)"/>
        <rect id="r3" class="cls-45" x="742.9" y="1475.5" width="12" height="165.4" transform="translate(-812 2301.7) rotate(-89.8)"/>
        <rect id="r4" class="cls-46" x="199" y="1543.2" width="12.2" height="18.8" transform="translate(-1348.3 1752.3) rotate(-89.8)"/>
        <rect id="r5" class="cls-47" x="449.7" y="1480.9" width="12" height="296.7" transform="translate(-1175.2 2079.3) rotate(-89.8)"/>
        <rect id="r6" class="cls-48" x="659.8" y="847.7" width="12.2" height="142.2" transform="translate(-255.2 1581.5) rotate(-89.8)"/>
        <rect id="r7" class="cls-48" x="473.2" y="872.4" width="12" height="92.6" transform="translate(-441.2 1394.7) rotate(-89.8)"/>
        <rect id="r8" class="cls-48" x="314.8" y="872.9" width="12.3" height="91" transform="translate(-598.5 1236.2) rotate(-89.8)"/>
        <rect id="r9" class="cls-48" x="108.1" y="895.9" width="12.2" height="43.5" transform="translate(-803.9 1028.7) rotate(-89.8)"/>
        <rect id="r10" class="cls-48" x="193" y="880.1" width="12.3" height="75.4" transform="translate(-719.4 1113.8) rotate(-89.8)"/>
        <rect id="r11" class="cls-48" x="55.2" y="915" width="12" height="7.4" transform="translate(-857.7 976.7) rotate(-89.8)"/>
      </g>
    </g>
    <g id="text">
      <g id="new_submissions" data-name="new submissions">
        <g class="cls-30">
          <text class="cls-7" transform="translate(313.2 178.2)"><tspan x="0" y="0">Old submissions</tspan></text>
        </g>
        <g class="cls-30">
          <text class="cls-17" transform="translate(333.6 192.4)"><tspan x="0" y="0">9.2 million</tspan></text>
        </g>
      </g>
      <g id="old_submissions" data-name="old submissions">
        <g class="cls-30">
          <text class="cls-7" transform="translate(552.1 179.2)"><tspan x="0" y="0">New submissions</tspan></text>
        </g>
        <g class="cls-30">
          <text class="cls-17" transform="translate(577.9 193.4)"><tspan x="0" y="0">6.7 million</tspan></text>
        </g>
      </g>
      <g id="pending-2">
        <g class="cls-30">
          <text class="cls-7" transform="translate(440.4 1653.7)"><tspan x="0" y="0">Pending</tspan></text>
        </g>
        <g class="cls-30">
          <text class="cls-17" transform="translate(439.8 1667.9)"><tspan x="0" y="0">9.7 million</tspan></text>
        </g>
      </g>
      <g id="approved-2">
        <g class="cls-30">
          <text class="cls-7" transform="translate(721.9 1581.1)"><tspan x="0" y="0">Approved</tspan></text>
        </g>
        <g class="cls-30">
          <text class="cls-17" transform="translate(724.1 1595.3)"><tspan x="0" y="0">9.2 million</tspan></text>
        </g>
      </g>
      <g id="denied-2">
        <g class="cls-30">
          <text class="cls-7" transform="translate(182.2 1577.1)"><tspan x="0" y="0">Denied</tspan></text>
        </g>
        <g class="cls-30">
          <text class="cls-17" transform="translate(170.9 1591.3)"><tspan x="0" y="0">587 thousand</tspan></text>
        </g>
      </g>
    </g>
  </g>
  <g id="annos">
    <g id="uscis">
      <g class="cls-30">
        <text class="cls-17" transform="translate(916.2 922.5)"><tspan x="0" y="0">USCIS processing</tspan></text>
      </g>
      <g>
        <line class="cls-41" x1="909.1" y1="918.7" x2="860.9" y2="918.7"/>
        <polygon class="cls-42" points="863.7 915 862.1 918.7 863.7 922.4 854.9 918.7 863.7 915"/>
      </g>
    </g>
    <g id="Layer_9" data-name="Layer 9">
      <g class="cls-30">
        <text class="cls-17" transform="translate(891.5 1562.9)"><tspan x="0" y="0">Where we want to be.</tspan></text>
      </g>
      <g>
        <line class="cls-41" x1="883.8" y1="1558.1" x2="849.9" y2="1558.1"/>
        <polygon class="cls-42" points="852.7 1554.4 851.2 1558.1 852.7 1561.8 844 1558.1 852.7 1554.4"/>
      </g>
    </g>
    <g id="sorting">
      <g class="cls-30">
        <text class="cls-17" transform="translate(806.8 501.7)"><tspan x="0" y="0">Submissions are sorted into categories.</tspan></text>
      </g>
      <g>
        <line class="cls-41" x1="801" y1="497.2" x2="764.6" y2="497.2"/>
        <polygon class="cls-42" points="767.4 493.5 765.8 497.2 767.4 500.9 758.6 497.2 767.4 493.5"/>
      </g>
    </g>
    <g id="arenow">
      <g class="cls-30">
        <text class="cls-17" transform="translate(658.2 1660.7)"><tspan x="0" y="0">Where we are now.</tspan></text>
      </g>
      <g>
        <line class="cls-41" x1="652.2" y1="1651" x2="619.4" y2="1635.4"/>
        <polygon class="cls-42" points="623.6 1633.3 620.6 1635.9 620.4 1640 614 1632.9 623.6 1633.3"/>
      </g>
    </g>
    <g id="started">
      <g class="cls-30">
        <text class="cls-17" transform="translate(764.8 212.2)"><tspan x="0" y="0">Where we started.</tspan></text>
      </g>
      <g>
        <line class="cls-41" x1="760.4" y1="208.6" x2="726.8" y2="208.5"/>
        <polygon class="cls-42" points="729.6 204.8 728 208.5 729.6 212.2 720.8 208.5 729.6 204.8"/>
      </g>
    </g>
  </g>
  <g id="title">
    <g class="cls-30">
      <text class="cls-4" transform="translate(296.9 106.4)"><tspan x="0" y="0">Our petition: One in 16 million</tspan></text>
    </g>
  </g>
</svg>